<svg height="166.299" viewBox="0 0 144.132 44" width="544.752" xmlns="http://www.w3.org/2000/svg">
  <g transform="translate(-33 -82)">
    <path d="m142 82h35v16.5h-35z" fill="#dbecff" paint-order="stroke markers fill"/>
    <path d="m142 98.5h35v27.5h-35z" fill="#ffebd9" paint-order="stroke markers fill"/>
    <g fill="#986a44" stroke-width=".2646" aria-label="sub rsp,0x8 mov edx,0x30 mov edi,0x1 xor eax,eax lea rsi,[rip+0xca3] call 1090 ...">
      <path d="m144.2 100.288v.248q-.11-.063-.22-.095t-.224-.032q-.172 0-.258.057-.084.055-.084.17 0 .103.064.154.063.05.315.099l.102.02q.189.035.285.142.098.108.098.28 0 .229-.162.358-.163.129-.452.129-.115 0-.24-.025-.126-.024-.272-.072v-.262q.142.073.272.11.13.036.245.036.168 0 .26-.067.093-.07.093-.192 0-.176-.338-.244l-.01-.003-.096-.019q-.219-.043-.32-.143-.1-.102-.1-.277 0-.222.15-.342.15-.121.429-.121.124 0 .238.023.114.022.225.068z"/>
      <path d="m144.827 101.193v-.956h.253v.956q0 .208.073.306.075.098.229.098.18 0 .274-.125.095-.127.095-.363v-.872h.255v1.54h-.255v-.23q-.067.133-.184.202-.116.069-.272.069-.237 0-.353-.155-.115-.156-.115-.47z"/>
      <path d="m147.522 101.007q0-.295-.094-.445-.093-.15-.277-.15-.184 0-.28.152-.094.15-.094.443 0 .292.095.444.095.152.28.152.183 0 .276-.15.094-.15.094-.446zm-.745-.576q.06-.113.166-.173.108-.06.248-.06.279 0 .439.214.16.214.16.59 0 .382-.162.6-.16.216-.44.216-.137 0-.243-.06-.105-.06-.168-.175v.195h-.254v-2.145h.254z"/>
      <path d="m151.247 100.553q-.081-.064-.165-.093-.084-.029-.185-.029-.237 0-.362.15-.126.148-.126.43v.767h-.255v-1.544h.255v.302q.064-.164.194-.25.133-.089.313-.089.094 0 .175.023.082.024.156.073z"/>
      <path d="m152.695 100.288v.248q-.109-.063-.219-.095t-.224-.032q-.173 0-.258.057-.084.055-.084.17 0 .103.063.154.064.05.316.099l.102.02q.189.035.285.142.098.108.098.28 0 .229-.163.358-.162.129-.452.129-.114 0-.24-.025-.125-.024-.271-.072v-.262q.142.073.271.11.13.036.246.036.168 0 .26-.067.092-.07.092-.192 0-.176-.337-.244l-.011-.003-.095-.019q-.22-.043-.32-.143-.1-.102-.1-.277 0-.222.15-.342.15-.121.428-.121.124 0 .239.023.114.022.224.068z"/>
      <path d="m153.57 101.583v.782h-.255v-2.13h.255v.196q.064-.114.168-.173.107-.06.244-.06.28 0 .439.215.16.217.16.6 0 .376-.16.591-.16.214-.439.214-.14 0-.246-.06-.105-.06-.166-.175zm.745-.576q0-.295-.094-.445-.092-.15-.276-.15-.184 0-.28.152-.095.15-.095.443 0 .292.095.444.096.152.28.152.183 0 .276-.15.094-.15.094-.446z"/>
      <path d="m155.445 101.36h.347v.285l-.272.528h-.212l.137-.528z"/>
      <path d="m157.117 100.744q0-.076.053-.13.054-.056.128-.056.077 0 .132.055.055.055.055.131 0 .077-.055.131-.053.054-.132.054-.077 0-.13-.053-.05-.052-.05-.132zm.184-.84q-.195 0-.291.209-.095.21-.095.638 0 .427.095.637.096.21.29.21.196 0 .291-.21.097-.21.097-.637 0-.429-.097-.638-.095-.21-.29-.21zm0-.221q.33 0 .497.27.17.27.17.798 0 .526-.17.797-.168.27-.497.27-.33 0-.498-.27-.168-.27-.168-.797 0-.528.168-.798t.498-.27z"/>
      <path d="m159.692 100.234-.553.739.606.805h-.293l-.452-.62-.45.62h-.294l.606-.805-.553-.739h.282l.409.558.406-.558z"/>
      <path d="m160.699 100.8q-.186 0-.288.105-.1.104-.1.294t.101.296q.104.105.287.105.187 0 .288-.103.102-.105.102-.298 0-.189-.103-.294-.102-.104-.287-.104zm-.243-.115q-.177-.046-.278-.17-.1-.124-.1-.299 0-.245.168-.388.166-.145.453-.145.288 0 .455.145.166.143.166.388 0 .175-.1.3-.1.123-.277.169.207.045.315.183.11.138.11.357 0 .278-.177.436-.178.157-.492.157t-.492-.156q-.176-.157-.176-.434 0-.22.108-.358.11-.14.317-.185zm-.1-.442q0 .165.088.252.088.086.255.086.168 0 .256-.086.088-.087.088-.253 0-.168-.088-.256-.087-.088-.256-.088-.167 0-.255.09-.088.088-.088.255z"/>
      <path d="m143.79 104.201q.047-.099.119-.146.073-.048.175-.048.186 0 .262.145.077.143.077.541v.895h-.232v-.884q0-.326-.037-.405-.036-.08-.132-.08-.11 0-.152.086-.04.084-.04.4v.883h-.231v-.884q0-.33-.04-.408-.039-.077-.14-.077t-.141.086q-.039.084-.039.4v.883h-.23v-1.544h.23v.132q.046-.082.113-.125.07-.044.156-.044.105 0 .174.048.07.048.108.146z"/>
      <path d="m145.407 104.222q-.193 0-.292.15-.1.15-.1.445 0 .294.1.445.099.15.292.15.194 0 .293-.15.1-.151.1-.445 0-.295-.1-.445-.099-.15-.293-.15zm0-.215q.321 0 .49.208.171.208.171.602 0 .396-.17.604-.169.207-.491.207-.321 0-.49-.207-.17-.208-.17-.604 0-.394.17-.602.169-.208.49-.208z"/>
      <path d="m146.395 104.044h.263l.448 1.296.45-1.296h.262l-.548 1.544h-.327z"/>
      <path d="m151.188 104.753v.124h-1.099v.008q0 .252.131.39.133.137.372.137.122 0 .254-.038.132-.039.282-.117v.252q-.144.06-.28.088-.133.03-.258.03-.36 0-.563-.215-.202-.216-.202-.595 0-.37.198-.59.199-.22.53-.22.294 0 .464.2.17.2.17.545zm-.254-.075q-.006-.223-.106-.339-.1-.117-.287-.117-.183 0-.301.121-.119.122-.14.337z"/>
      <path d="m152.537 104.241v-.798h.253v2.145h-.253v-.195q-.064.115-.17.175-.104.06-.242.06-.28 0-.441-.217-.16-.218-.16-.6 0-.375.161-.59.161-.214.44-.214.139 0 .245.06.106.06.167.174zm-.746.576q0 .295.094.445.094.15.277.15.183 0 .278-.151.097-.152.097-.444 0-.293-.097-.443-.095-.152-.278-.152-.183 0-.277.15-.094.15-.094.445z"/>
      <path d="m154.594 104.044-.552.739.606.805h-.294l-.452-.62-.45.62h-.294l.607-.805-.553-.739h.281l.41.558.406-.558z"/>
      <path d="m155.445 105.17h.347v.285l-.272.528h-.212l.137-.528z"/>
      <path d="m157.117 104.554q0-.076.053-.13.054-.056.128-.056.077 0 .132.055.055.055.055.131 0 .077-.055.131-.053.054-.132.054-.077 0-.13-.053-.05-.052-.05-.132zm.184-.84q-.195 0-.291.209-.095.21-.095.638 0 .427.095.637.096.21.29.21.196 0 .291-.21.097-.21.097-.637 0-.429-.097-.638-.095-.21-.29-.21zm0-.221q.33 0 .497.27.17.27.17.798 0 .526-.17.797-.168.27-.497.27-.33 0-.498-.27-.168-.27-.168-.797 0-.528.168-.798t.498-.27z"/>
      <path d="m159.692 104.044-.553.739.606.805h-.293l-.452-.62-.45.62h-.294l.606-.805-.553-.739h.282l.409.558.406-.558z"/>
      <path d="m160.92 104.487q.202.053.31.191.107.137.107.342 0 .284-.192.446-.19.162-.527.162-.142 0-.29-.027-.147-.026-.29-.075v-.277q.141.073.278.108.136.036.271.036.23 0 .352-.103.122-.103.122-.298 0-.179-.122-.284-.123-.106-.332-.106h-.213v-.228h.213q.191 0 .299-.085.107-.084.107-.234 0-.158-.1-.242-.1-.086-.284-.086-.123 0-.254.028-.13.027-.274.083v-.257q.167-.044.296-.066.131-.022.232-.022.3 0 .48.152.18.15.18.4 0 .169-.095.282-.094.113-.275.16z"/>
      <path d="m162.215 104.554q0-.076.052-.13.054-.056.128-.056.078 0 .133.055.055.055.055.131 0 .077-.055.131-.054.054-.133.054-.077 0-.13-.053-.05-.052-.05-.132zm.183-.84q-.194 0-.29.209-.096.21-.096.638 0 .427.095.637.097.21.291.21.196 0 .29-.21.097-.21.097-.637 0-.429-.096-.638-.095-.21-.29-.21zm0-.221q.33 0 .498.27.169.27.169.798 0 .526-.17.797-.168.27-.497.27-.33 0-.497-.27-.169-.27-.169-.797 0-.528.169-.798.168-.27.497-.27z"/>
      <path d="m143.79 108.011q.047-.099.119-.146.073-.048.175-.048.186 0 .262.145.077.143.077.541v.895h-.232v-.884q0-.326-.037-.405-.036-.08-.132-.08-.11 0-.152.086-.04.084-.04.4v.883h-.231v-.884q0-.33-.04-.408-.039-.077-.14-.077t-.141.086q-.039.084-.039.4v.883h-.23v-1.544h.23v.132q.046-.082.113-.125.07-.044.156-.044.105 0 .174.048.07.048.108.146z"/>
      <path d="m145.407 108.032q-.193 0-.292.15-.1.15-.1.445 0 .294.1.445.099.15.292.15.194 0 .293-.15.1-.151.1-.445 0-.295-.1-.445-.099-.15-.293-.15zm0-.215q.321 0 .49.208.171.208.171.602 0 .396-.17.604-.169.207-.491.207-.321 0-.49-.207-.17-.208-.17-.604 0-.394.17-.602.169-.208.49-.208z"/>
      <path d="m146.395 107.854h.263l.448 1.296.45-1.296h.262l-.548 1.544h-.327z"/>
      <path d="m151.188 108.563v.124h-1.099v.008q0 .252.131.39.133.137.372.137.122 0 .254-.038.132-.039.282-.117v.252q-.144.06-.28.088-.133.03-.258.03-.36 0-.563-.215-.202-.216-.202-.595 0-.37.198-.59.199-.22.53-.22.294 0 .464.2.17.2.17.545zm-.254-.075q-.006-.223-.106-.339-.1-.117-.287-.117-.183 0-.301.121-.119.122-.14.337z"/>
      <path d="m152.537 108.051v-.798h.253v2.145h-.253v-.195q-.064.115-.17.175-.104.06-.242.06-.28 0-.441-.217-.16-.217-.16-.6 0-.375.161-.589.161-.215.44-.215.139 0 .245.06.106.06.167.174zm-.746.576q0 .295.094.445.094.15.277.15.183 0 .278-.151.097-.152.097-.444 0-.293-.097-.443-.095-.152-.278-.152-.183 0-.277.15-.094.15-.094.445z"/>
      <path d="m153.406 107.854h.65v1.347h.502v.197h-1.26v-.197h.504v-1.15h-.396zm.396-.6h.253v.32h-.253z"/>
      <path d="m155.445 108.98h.347v.285l-.272.528h-.212l.137-.528z"/>
      <path d="m157.117 108.364q0-.076.053-.13.054-.056.128-.056.077 0 .132.055.055.055.055.131 0 .077-.055.131-.053.054-.132.054-.077 0-.13-.053-.05-.052-.05-.132zm.184-.84q-.195 0-.291.209-.095.21-.095.638 0 .427.095.637.096.21.29.21.196 0 .291-.21.097-.21.097-.637 0-.429-.097-.638-.095-.21-.29-.21zm0-.221q.33 0 .497.27.17.27.17.798 0 .526-.17.797-.168.27-.497.27-.33 0-.498-.27-.168-.27-.168-.797 0-.528.168-.798t.498-.27z"/>
      <path d="m159.692 107.854-.553.739.606.805h-.293l-.452-.62-.45.62h-.294l.606-.805-.553-.739h.282l.409.558.406-.558z"/>
      <path d="m160.222 109.163h.433v-1.572l-.466.105v-.254l.463-.102h.278v1.823h.428v.235h-1.136z"/>
      <path d="m144.4 111.664-.553.739.606.805h-.293l-.452-.62-.45.62h-.294l.606-.805-.553-.739h.281l.41.558.406-.558z"/>
      <path d="m145.407 111.842q-.193 0-.292.15-.1.15-.1.445 0 .294.1.445.099.15.292.15.194 0 .293-.15.1-.151.1-.445 0-.295-.1-.445-.099-.15-.293-.15zm0-.215q.321 0 .49.208.171.208.171.602 0 .396-.17.604-.169.207-.491.207-.321 0-.49-.207-.17-.208-.17-.604 0-.394.17-.602.169-.208.49-.208z"/>
      <path d="m147.849 111.983q-.082-.064-.166-.093-.084-.029-.184-.029-.237 0-.363.15-.125.148-.125.43v.767h-.255v-1.544h.255v.302q.063-.164.194-.25.133-.089.313-.089.094 0 .175.023.081.024.156.073z"/>
      <path d="m151.188 112.373v.124h-1.099v.008q0 .252.131.39.133.137.372.137.122 0 .254-.038.132-.039.282-.117v.252q-.144.059-.28.088-.133.03-.258.03-.36 0-.563-.215-.202-.216-.202-.595 0-.37.198-.59.199-.22.53-.22.294 0 .464.2.17.2.17.545zm-.254-.075q-.006-.223-.106-.339-.1-.117-.287-.117-.183 0-.301.121-.119.122-.14.337z"/>
      <path d="m152.322 112.432h-.084q-.222 0-.335.078-.112.077-.112.232 0 .139.084.216.084.077.233.077.21 0 .33-.144.12-.146.12-.403v-.056zm.492-.105v.88h-.255v-.228q-.081.138-.205.204-.123.065-.3.065-.235 0-.376-.133-.14-.133-.14-.357 0-.257.172-.39.174-.135.509-.135h.34v-.04q-.001-.184-.094-.267-.092-.084-.295-.084-.13 0-.262.037t-.257.109v-.254q.14-.053.268-.08.13-.027.251-.027.192 0 .327.056.136.057.22.17.053.069.075.17t.022.304z"/>
      <path d="m154.594 111.664-.552.739.606.805h-.294l-.452-.62-.45.62h-.294l.607-.805-.553-.739h.281l.41.558.406-.558z"/>
      <path d="m155.445 112.79h.347v.285l-.272.528h-.212l.137-.528z"/>
      <path d="m157.984 112.373v.124h-1.098v.008q0 .252.13.39.133.137.373.137.121 0 .253-.038.133-.039.283-.117v.252q-.145.059-.28.088-.133.03-.259.03-.36 0-.562-.215-.203-.216-.203-.595 0-.37.199-.59.198-.22.529-.22.295 0 .464.2.171.2.171.545zm-.253-.075q-.006-.223-.106-.339-.1-.117-.287-.117-.183 0-.302.121-.118.122-.14.337z"/>
      <path d="m159.118 112.432h-.084q-.222 0-.335.078-.111.077-.111.232 0 .139.084.216.084.077.233.077.21 0 .33-.144.119-.146.12-.403v-.056zm.492-.105v.88h-.255v-.228q-.08.138-.205.204-.123.065-.299.065-.236 0-.376-.133t-.14-.357q0-.257.172-.39.173-.135.508-.135h.34v-.04q0-.184-.093-.267-.093-.084-.295-.084-.13 0-.262.037t-.258.109v-.254q.14-.053.269-.08.13-.027.25-.027.192 0 .327.056.137.057.22.17.053.069.075.17t.022.304z"/>
      <path d="m161.39 111.664-.552.739.606.805h-.293l-.452-.62-.45.62h-.294l.606-.805-.552-.739h.28l.41.558.406-.558z"/>
      <path d="m143.74 116.458q0 .171.061.258.064.087.186.087h.297v.215h-.321q-.228 0-.353-.146-.124-.147-.124-.414v-1.401h-.407v-.199h.66z"/>
      <path d="m146.09 116.183v.124h-1.098v.008q0 .252.131.39.132.137.372.137.121 0 .254-.038.132-.039.282-.117v.252q-.145.06-.28.088-.133.03-.259.03-.36 0-.562-.215-.202-.216-.202-.595 0-.37.198-.59.198-.22.53-.22.294 0 .464.2.17.2.17.545zm-.253-.075q-.006-.223-.106-.339-.1-.117-.287-.117-.183 0-.302.121-.118.122-.14.337z"/>
      <path d="m147.225 116.242h-.085q-.221 0-.334.078-.112.078-.112.232 0 .14.084.216.084.077.233.077.21 0 .33-.144.12-.146.12-.403v-.056zm.491-.105v.88h-.254v-.228q-.082.138-.206.204-.122.065-.299.065-.235 0-.376-.133-.14-.133-.14-.357 0-.257.172-.39.173-.135.508-.135h.34v-.04q0-.184-.093-.267-.092-.084-.295-.084-.13 0-.262.037t-.258.109v-.254q.141-.053.27-.08.129-.027.25-.027.191 0 .327.056.136.057.22.17.052.069.074.17t.022.304z"/>
      <path d="m151.247 115.793q-.081-.064-.165-.093-.084-.029-.185-.029-.237 0-.362.15-.126.148-.126.43v.767h-.255v-1.544h.255v.302q.064-.164.194-.25.133-.089.313-.089.094 0 .175.023.082.024.156.073z"/>
      <path d="m152.695 115.528v.248q-.109-.063-.219-.095t-.224-.032q-.173 0-.258.057-.084.055-.084.17 0 .103.063.154.064.05.316.099l.102.019q.189.036.285.143.098.108.098.28 0 .229-.163.358-.162.129-.452.129-.114 0-.24-.025-.125-.024-.271-.072v-.262q.142.073.271.11.13.036.246.036.168 0 .26-.067.092-.07.092-.192 0-.176-.337-.244l-.011-.003-.095-.019q-.22-.043-.32-.143-.1-.102-.1-.277 0-.222.15-.342.15-.121.428-.121.124 0 .239.023.114.022.224.068z"/>
      <path d="m153.406 115.474h.65v1.347h.502v.197h-1.26v-.197h.504v-1.15h-.396zm.396-.6h.253v.32h-.253z"/>
      <path d="m155.445 116.6h.347v.285l-.272.528h-.212l.137-.528z"/>
      <path d="m157.09 114.873h.584v.197h-.33v2.123h.33v.197h-.584z"/>
      <path d="m159.743 115.793q-.082-.064-.166-.093-.084-.029-.184-.029-.237 0-.363.15-.125.148-.125.43v.767h-.255v-1.544h.255v.302q.063-.164.194-.25.132-.089.313-.089.094 0 .175.023.081.024.156.073z"/>
      <path d="m160.203 115.474h.649v1.347h.503v.197h-1.26v-.197h.503v-1.15h-.395zm.395-.6h.254v.32h-.254z"/>
      <path d="m162.066 116.823v.782h-.255v-2.13h.255v.196q.063-.114.168-.173.106-.061.244-.061.28 0 .438.216.16.217.16.6 0 .376-.16.591-.16.214-.438.214-.14 0-.247-.06-.104-.06-.165-.175zm.744-.576q0-.295-.094-.445-.092-.15-.275-.15-.185 0-.28.152-.095.15-.095.443 0 .292.095.444.095.152.28.152.183 0 .275-.15.094-.15.094-.446z"/>
      <path d="m164.213 115.404v.612h.613v.234h-.613v.612h-.232v-.612h-.611v-.234h.611v-.612z"/>
      <path d="m165.613 115.984q0-.076.052-.13.054-.056.129-.056.077 0 .132.055.055.055.055.131 0 .077-.055.131-.054.054-.132.054-.078 0-.13-.053-.05-.052-.05-.132zm.183-.84q-.194 0-.29.209-.096.21-.096.638 0 .427.096.637.096.21.29.21.196 0 .291-.21.097-.21.097-.637 0-.429-.097-.638-.095-.21-.29-.21zm0-.221q.33 0 .498.27.17.27.17.798 0 .526-.17.796-.168.27-.498.27-.329 0-.497-.27-.168-.27-.168-.796 0-.528.168-.798t.497-.27z"/>
      <path d="m168.187 115.474-.552.739.606.805h-.294l-.452-.62-.45.62h-.294l.607-.805-.553-.739h.281l.41.558.406-.558z"/>
      <path d="m169.808 116.94q-.102.058-.211.087-.108.03-.22.03-.359 0-.561-.214-.202-.215-.202-.596 0-.38.202-.595.202-.215.56-.215.112 0 .218.029t.214.09v.265q-.1-.09-.203-.13-.1-.04-.229-.04-.238 0-.366.155t-.128.441q0 .285.128.441.13.155.366.155.133 0 .237-.04.105-.042.195-.127z"/>
      <path d="m171.012 116.242h-.084q-.222 0-.335.078-.111.078-.111.232 0 .14.084.216.084.077.233.077.21 0 .329-.144.12-.146.121-.403v-.056zm.492-.105v.88h-.255v-.228q-.081.138-.205.204-.123.065-.3.065-.235 0-.375-.133t-.14-.357q0-.257.171-.39.174-.135.509-.135h.34v-.04q0-.184-.093-.267-.093-.084-.295-.084-.13 0-.262.037-.133.037-.258.109v-.254q.14-.053.269-.08.13-.027.25-.027.192 0 .327.056.137.057.22.17.053.069.075.17t.022.304z"/>
      <path d="m172.813 115.917q.203.053.31.191.108.137.108.342 0 .284-.192.446-.19.162-.528.162-.141 0-.289-.027-.147-.026-.29-.075v-.277q.141.073.278.108.136.036.271.036.229 0 .352-.103.122-.103.122-.298 0-.179-.122-.284-.123-.106-.333-.106h-.212v-.228h.212q.192 0 .3-.085.107-.084.107-.234 0-.158-.1-.242-.1-.086-.284-.086-.123 0-.254.028-.131.027-.274.083v-.257q.166-.044.296-.066.13-.022.232-.022.3 0 .48.152.18.15.18.4 0 .169-.096.282-.093.113-.274.16z"/>
      <path d="m174.504 114.873v2.517h-.584v-.197h.33v-2.123h-.33v-.197z"/>
      <path d="m144.321 120.75q-.102.058-.21.087-.108.03-.221.03-.359 0-.561-.214-.201-.215-.201-.596 0-.38.2-.595.203-.215.562-.215.111 0 .217.029t.214.09v.265q-.1-.09-.203-.13-.1-.04-.228-.04-.239 0-.367.155t-.128.441q0 .285.128.441.13.155.367.155.132 0 .237-.04.104-.042.194-.127z"/>
      <path d="m145.525 120.052h-.084q-.222 0-.335.078-.111.077-.111.232 0 .139.084.216.084.077.233.077.21 0 .33-.144.119-.146.12-.403v-.056zm.492-.105v.88h-.255v-.228q-.08.138-.205.204-.123.065-.299.065-.236 0-.376-.133t-.14-.357q0-.257.172-.39.173-.135.508-.135h.34v-.04q0-.184-.093-.267-.093-.084-.295-.084-.13 0-.262.037t-.258.109v-.254q.14-.053.269-.08.13-.027.25-.027.192 0 .327.056.137.057.22.17.053.069.075.17t.022.304z"/>
      <path d="m147.138 120.268q0 .171.062.258.063.087.186.087h.296v.215h-.321q-.227 0-.353-.146-.124-.147-.124-.414v-1.401h-.406v-.199h.66z"/>
      <path d="m148.837 120.268q0 .171.062.258.063.087.186.087h.296v.215h-.321q-.227 0-.353-.146-.124-.147-.124-.414v-1.401h-.406v-.199h.66z"/>
      <path d="m151.727 120.593h.432v-1.572l-.466.105v-.254l.464-.102h.278v1.823h.427v.235h-1.135z"/>
      <path d="m153.72 119.794q0-.076.052-.13.053-.056.128-.056.077 0 .132.055.055.055.055.131 0 .077-.055.131-.054.054-.132.054-.077 0-.13-.053-.05-.052-.05-.132zm.182-.84q-.194 0-.29.209-.095.21-.095.638 0 .427.095.637.096.21.29.21.196 0 .291-.21.097-.21.097-.637 0-.429-.097-.638-.095-.21-.29-.21zm0-.221q.33 0 .498.27.17.27.17.798 0 .526-.17.796-.168.27-.498.27-.329 0-.497-.27-.168-.27-.168-.796 0-.528.168-.798t.497-.27z"/>
      <path d="m155.574 119.915q.178 0 .278-.128.102-.128.102-.354 0-.226-.102-.354-.1-.128-.278-.128-.185 0-.278.122-.094.122-.094.36 0 .24.092.361.094.121.28.121zm-.496.87v-.256q.087.05.185.078.097.026.204.026.264 0 .4-.198.136-.2.136-.587-.065.138-.182.212-.117.073-.269.073-.298 0-.462-.183-.162-.184-.162-.52 0-.332.166-.514.169-.183.475-.183.358 0 .525.258.166.257.166.81 0 .52-.2.794-.2.273-.582.273-.101 0-.203-.023-.102-.02-.197-.06z"/>
      <path d="m157.117 119.794q0-.076.053-.13.054-.056.128-.056.077 0 .132.055.055.055.055.131 0 .077-.055.131-.053.054-.132.054-.077 0-.13-.053-.05-.052-.05-.132zm.184-.84q-.195 0-.291.209-.095.21-.095.638 0 .427.095.637.096.21.29.21.196 0 .291-.21.097-.21.097-.637 0-.429-.097-.638-.095-.21-.29-.21zm0-.221q.33 0 .497.27.17.27.17.798 0 .526-.17.796-.168.27-.497.27-.33 0-.498-.27-.168-.27-.168-.796 0-.528.168-.798t.498-.27z"/>
      <path d="m143.533 123.447h.347v.42h-.347z"/>
      <path d="m145.232 123.447h.347v.42h-.347z"/>
      <path d="m146.931 123.447h.347v.42h-.347z"/>
    </g>
    <g fill="#4b76a6" stroke-width=".2646" aria-label="int3 int3 int3 ...">
      <path d="m143.212 84.494h.649v1.347h.503v.197h-1.26v-.197h.503v-1.15h-.395zm.395-.6h.254v.32h-.254z"/>
      <path d="m146.006 85.081v.957h-.255v-.957q0-.208-.073-.306-.073-.097-.228-.097-.178 0-.275.126-.095.126-.095.361v.873h-.253v-1.544h.253v.232q.068-.133.184-.2.115-.069.274-.069.235 0 .351.156.117.154.117.468z"/>
      <path d="m147.103 84.056v.438h.576v.197h-.576v.838q0 .171.065.239.065.067.226.067h.285v.203h-.31q-.285 0-.402-.115-.117-.114-.117-.394v-.838h-.412v-.197h.412v-.438z"/>
      <path d="m149.026 84.937q.202.053.31.191.107.137.107.342 0 .284-.191.446-.19.162-.528.162-.142 0-.29-.027-.147-.026-.289-.075v-.277q.14.073.277.109.136.035.272.035.228 0 .35-.103.124-.103.124-.298 0-.179-.123-.284-.123-.106-.332-.106h-.212v-.228h.212q.191 0 .299-.084.107-.085.107-.235 0-.158-.1-.242-.1-.086-.284-.086-.123 0-.254.028-.13.027-.274.083v-.257q.167-.044.296-.066.131-.022.232-.022.3 0 .48.152.18.15.18.4 0 .169-.095.282-.094.113-.274.16z"/>
      <path d="m143.212 88.304h.649v1.347h.503v.197h-1.26v-.197h.503v-1.151h-.395zm.395-.6h.254v.32h-.254z"/>
      <path d="m146.006 88.891v.957h-.255v-.957q0-.208-.073-.306-.073-.097-.228-.097-.178 0-.275.126-.095.126-.095.361v.873h-.253v-1.544h.253v.232q.068-.133.184-.2.115-.069.274-.069.235 0 .351.156.117.154.117.468z"/>
      <path d="m147.103 87.866v.438h.576v.197h-.576v.838q0 .171.065.239.065.067.226.067h.285v.203h-.31q-.285 0-.402-.115-.117-.114-.117-.394v-.838h-.412v-.197h.412v-.438z"/>
      <path d="m149.026 88.747q.202.053.31.191.107.137.107.342 0 .284-.191.446-.19.162-.528.162-.142 0-.29-.027-.147-.026-.289-.075v-.277q.14.073.277.109.136.035.272.035.228 0 .35-.103.124-.103.124-.298 0-.179-.123-.284-.123-.106-.332-.106h-.212v-.228h.212q.191 0 .299-.084.107-.085.107-.235 0-.158-.1-.242-.1-.086-.284-.086-.123 0-.254.028-.13.027-.274.083v-.257q.167-.044.296-.066.131-.022.232-.022.3 0 .48.152.18.15.18.4 0 .169-.095.282-.094.113-.274.16z"/>
      <path d="m143.212 92.114h.649v1.347h.503v.197h-1.26v-.197h.503v-1.15h-.395zm.395-.6h.254v.32h-.254z"/>
      <path d="m146.006 92.701v.957h-.255v-.958q0-.208-.073-.306-.073-.097-.228-.097-.178 0-.275.126-.095.126-.095.361v.873h-.253v-1.544h.253v.232q.068-.133.184-.2.115-.069.274-.069.235 0 .351.156.117.154.117.468z"/>
      <path d="m147.103 91.676v.438h.576v.197h-.576v.838q0 .171.065.239.065.067.226.067h.285v.203h-.31q-.285 0-.402-.115-.117-.114-.117-.394v-.838h-.412v-.197h.412v-.438z"/>
      <path d="m149.026 92.557q.202.053.31.191.107.137.107.342 0 .284-.191.446-.19.162-.528.162-.142 0-.29-.027-.147-.026-.289-.075v-.277q.14.073.277.109.136.035.272.035.228 0 .35-.103.124-.103.124-.298 0-.179-.123-.284-.123-.106-.332-.106h-.212v-.228h.212q.191 0 .299-.084.107-.085.107-.235 0-.158-.1-.242-.1-.086-.284-.086-.123 0-.254.028-.13.027-.274.083v-.257q.167-.044.296-.066.131-.022.232-.022.3 0 .48.152.18.15.18.4 0 .169-.095.282-.094.113-.274.16z"/>
      <path d="m143.533 96.277h.347v.42h-.347z"/>
      <path d="m145.232 96.277h.347v.42h-.347z"/>
      <path d="m146.931 96.277h.347v.42h-.347z"/>
    </g>
    <g stroke-width=".2646" aria-label="Validation - call site - call graph">
      <path d="m126.664 116.538-.33-1.878h.25l.272 1.615.912-1.615h.276l-1.085 1.878z"/>
      <path d="m129.113 115.734-.157.804h-.231l.043-.214q-.102.126-.233.188-.13.062-.29.062-.18 0-.295-.11-.114-.11-.114-.282 0-.247.196-.39.197-.143.543-.143h.322l.013-.062q.003-.01.004-.021v-.038q0-.112-.091-.174-.09-.063-.255-.063-.114 0-.233.03-.118.028-.244.086l.04-.214q.131-.049.255-.072.126-.026.243-.026.25 0 .379.109.13.108.13.314 0 .041-.006.098-.006.055-.018.118zm-.25.096h-.231q-.284 0-.422.076-.135.076-.135.236 0 .11.069.173.07.063.193.063.19 0 .33-.135t.186-.362z"/>
      <path d="m129.78 114.581h.231l-.38 1.957h-.232z"/>
      <path d="m130.495 114.581h.232l-.057.293h-.231zm-.105.548h.231l-.275 1.409h-.232z"/>
      <path d="m131.816 116.326q-.094.122-.22.185-.127.063-.282.063-.211 0-.335-.143-.122-.145-.122-.395 0-.209.075-.397.074-.19.215-.34.093-.1.21-.15.117-.054.245-.054.136 0 .239.066.104.065.16.187l.152-.767h.232l-.38 1.957h-.233zm-.718-.332q0 .183.081.285.083.101.23.101.107 0 .2-.051.092-.053.163-.155.074-.105.116-.244.043-.138.043-.273 0-.174-.083-.272-.081-.099-.226-.099-.11 0-.204.052-.094.052-.16.148-.074.105-.118.243-.042.138-.042.265z"/>
      <path d="m133.757 115.734-.157.804h-.231l.042-.214q-.102.126-.232.188t-.29.062q-.18 0-.295-.11-.114-.11-.114-.282 0-.247.196-.39.197-.143.543-.143h.322l.012-.062q.003-.01.004-.021l.001-.038q0-.112-.091-.174-.09-.063-.256-.063-.113 0-.232.03-.118.028-.244.086l.04-.214q.13-.049.255-.072.126-.026.243-.026.249 0 .378.109.131.108.131.314 0 .041-.006.098-.006.055-.019.118zm-.25.096h-.232q-.284 0-.42.076-.137.076-.137.236 0 .11.07.173.07.063.193.063.189 0 .33-.135.14-.135.186-.362z"/>
      <path d="m135.041 115.13-.035.18h-.462l-.15.764q-.007.042-.01.071-.005.03-.005.046 0 .08.048.117.05.036.156.036h.234l-.039.194h-.221q-.207 0-.308-.08-.101-.081-.101-.245 0-.029.004-.063.004-.035.011-.076l.15-.765h-.196l.036-.18h.193l.078-.4h.231l-.077.4z"/>
      <path d="m135.433 114.581h.232l-.057.293h-.231zm-.105.548h.231l-.275 1.409h-.232z"/>
      <path d="m136.331 116.574q-.248 0-.392-.152-.144-.153-.144-.418 0-.153.05-.311.05-.16.129-.268.124-.169.278-.25.153-.08.347-.08.24 0 .387.15.149.15.149.391 0 .167-.05.333-.048.166-.128.276-.123.168-.276.249-.154.08-.35.08zm-.295-.577q0 .191.079.287.08.094.242.094.233 0 .385-.203.154-.203.154-.515 0-.182-.082-.275-.082-.094-.24-.094-.131 0-.233.062-.102.06-.182.185-.06.093-.092.212-.031.12-.031.247z"/>
      <path d="m138.688 115.688-.165.85h-.233l.165-.842.018-.104q.006-.045.006-.072 0-.105-.067-.164-.067-.06-.186-.06-.186 0-.32.125-.135.123-.177.336l-.155.78h-.23l.272-1.408h.231l-.046.222q.097-.122.232-.19.136-.066.286-.066.186 0 .288.1.103.102.103.284 0 .045-.006.097-.005.051-.016.112z"/>
      <path d="m126.29 118.82h.678l-.039.206h-.68z"/>
      <path d="m129.262 118.274-.047.229q-.083-.06-.177-.091-.093-.03-.194-.03-.11 0-.211.039-.1.039-.167.11-.108.11-.168.257-.059.147-.059.304 0 .19.095.283.095.093.289.093.095 0 .202-.029.108-.029.225-.086l-.044.228q-.1.042-.207.062-.106.021-.218.021-.28 0-.43-.14-.152-.14-.152-.4 0-.22.078-.403.08-.185.234-.332.106-.1.248-.152.142-.051.31-.051.099 0 .195.022.097.022.198.066z"/>
      <path d="m130.68 118.824-.157.804h-.231l.042-.214q-.102.126-.232.189-.13.061-.29.061-.18 0-.295-.109-.114-.11-.114-.283 0-.246.196-.39.197-.143.543-.143h.322l.012-.062q.003-.01.004-.021l.001-.038q0-.112-.091-.173-.09-.063-.256-.063-.113 0-.232.029-.118.029-.244.087l.04-.214q.13-.05.255-.073.126-.025.243-.025.249 0 .378.108.131.108.131.314 0 .042-.006.098t-.019.119zm-.25.096h-.232q-.284 0-.42.077-.137.075-.137.235 0 .11.07.173.07.063.193.063.189 0 .33-.134.14-.136.186-.362z"/>
      <path d="m131.347 117.671h.23l-.38 1.957h-.231z"/>
      <path d="m132.062 117.671h.231l-.38 1.957h-.232z"/>
      <path d="m134.412 118.261-.044.219q-.092-.05-.193-.076-.102-.025-.21-.025-.183 0-.288.063-.105.062-.105.169 0 .124.244.19l.028.009.074.022q.231.065.308.135.078.07.078.192 0 .224-.178.365-.178.14-.466.14-.112 0-.235-.02-.123-.022-.271-.067l.045-.239q.127.065.25.1.123.033.237.033.17 0 .275-.073.107-.073.107-.185 0-.12-.28-.194l-.023-.006-.08-.02q-.175-.047-.257-.123-.082-.076-.082-.194 0-.226.169-.358.17-.132.46-.132.114 0 .222.02.11.018.215.056z"/>
      <path d="m134.938 117.671h.231l-.056.293h-.232zm-.106.549h.232l-.276 1.408h-.231z"/>
      <path d="m136.27 118.22-.034.18h-.462l-.15.764q-.008.043-.01.072-.005.029-.005.045 0 .08.048.117.049.036.156.036h.234l-.04.194h-.22q-.207 0-.309-.08-.1-.08-.1-.244 0-.03.004-.063l.011-.077.15-.765h-.196l.036-.18h.192l.078-.4h.232l-.077.4z"/>
      <path d="m137.43 118.798q.004-.02.005-.041.003-.022.003-.043 0-.154-.09-.243-.09-.09-.244-.09-.173 0-.305.11-.132.108-.2.308zm.201.181h-1.076q-.008.048-.01.076-.003.027-.003.047 0 .175.107.27.108.096.304.096.15 0 .285-.034.135-.034.25-.099l-.043.229q-.125.05-.258.076-.132.025-.27.025-.292 0-.45-.14-.158-.14-.158-.399 0-.22.078-.408.08-.19.232-.338.098-.094.232-.144.136-.05.288-.05.24 0 .38.143.142.144.142.385 0 .058-.008.124t-.023.141z"/>
      <path d="m126.29 121.91h.678l-.039.206h-.68z"/>
      <path d="m129.262 121.364-.047.229q-.083-.06-.177-.09-.093-.03-.194-.03-.11 0-.211.038-.1.04-.167.11-.108.11-.168.257-.059.147-.059.305 0 .19.095.283.095.093.289.093.095 0 .202-.03.108-.028.225-.086l-.044.229q-.1.041-.207.061-.106.022-.218.022-.28 0-.43-.14-.152-.14-.152-.4 0-.22.078-.403.08-.185.234-.332.106-.1.248-.152.142-.052.31-.052.099 0 .195.023.097.021.198.065z"/>
      <path d="m130.68 121.915-.157.803h-.231l.042-.213q-.102.125-.232.188-.13.062-.29.062-.18 0-.295-.11-.114-.11-.114-.283 0-.246.196-.39.197-.143.543-.143h.322l.012-.061q.003-.01.004-.022l.001-.037q0-.112-.091-.174-.09-.063-.256-.063-.113 0-.232.03-.118.028-.244.086l.04-.214q.13-.049.255-.073.126-.025.243-.025.249 0 .378.108.131.108.131.315 0 .041-.006.098-.006.055-.019.118zm-.25.095h-.232q-.284 0-.42.077-.137.076-.137.235 0 .11.07.174.07.063.193.063.189 0 .33-.135.14-.136.186-.362z"/>
      <path d="m131.347 120.762h.23l-.38 1.956h-.231z"/>
      <path d="m132.062 120.762h.231l-.38 1.956h-.232z"/>
      <path d="m134.66 121.31-.24 1.234q-.07.358-.266.534-.194.176-.525.176-.122 0-.227-.019-.104-.018-.194-.055l.042-.225q.086.055.181.081.096.027.204.027.22 0 .361-.12.142-.12.187-.345l.02-.106q-.096.11-.225.168-.128.058-.276.058-.214 0-.337-.14-.122-.143-.122-.39 0-.195.074-.381.074-.188.209-.332.089-.096.207-.147.12-.052.25-.052.141 0 .247.067.105.065.157.186l.04-.22zm-.348.517q0-.171-.08-.264-.081-.093-.23-.093-.092 0-.175.036-.083.037-.142.102-.095.108-.15.255-.052.146-.052.302 0 .174.08.267.082.093.234.093.22 0 .368-.199.147-.2.147-.5z"/>
      <path d="m135.907 121.524q-.035-.02-.08-.03-.045-.01-.097-.01-.185 0-.323.142-.138.14-.184.374l-.142.718h-.231l.275-1.408h.232l-.044.219q.091-.122.218-.188.129-.065.273-.065.038 0 .074.005.037.004.073.014z"/>
      <path d="m137.201 121.915-.157.803h-.231l.043-.213q-.102.125-.233.188-.13.062-.29.062-.18 0-.295-.11-.114-.11-.114-.283 0-.246.196-.39.197-.143.543-.143h.322l.013-.061q.003-.01.004-.022v-.037q0-.112-.091-.174-.09-.063-.255-.063-.114 0-.233.03-.118.028-.244.086l.04-.214q.131-.049.255-.073.126-.025.243-.025.25 0 .379.108.13.108.13.315 0 .041-.006.098-.006.055-.018.118zm-.25.095h-.231q-.285 0-.422.077-.135.076-.135.235 0 .11.069.174.07.063.193.063.19 0 .33-.135.14-.136.186-.362z"/>
      <path d="m138.674 121.85q0-.184-.08-.282-.081-.098-.232-.098-.103 0-.198.052-.093.053-.166.154-.071.1-.114.24-.043.14-.043.28 0 .175.08.27.081.095.23.095.109 0 .202-.052.094-.051.161-.15.072-.102.116-.242.044-.14.044-.266zm-.717-.326q.093-.122.219-.185.127-.063.281-.063.217 0 .336.142.12.14.12.396 0 .209-.075.399-.074.188-.213.338-.093.1-.21.152-.117.052-.247.052-.15 0-.251-.062-.102-.063-.152-.186l-.145.747h-.231l.378-1.944h.231z"/>
      <path d="m140.466 121.868-.165.85h-.233l.165-.84.018-.105q.006-.046.006-.072 0-.106-.067-.165-.067-.059-.186-.059-.186 0-.323.126-.136.126-.176.334l-.152.781h-.232l.381-1.956h.232l-.15.77q.088-.119.225-.187.137-.07.288-.07.186 0 .288.102.103.1.103.282 0 .046-.006.097-.005.052-.016.112z"/>
    </g>
    <path d="m132.5 109v3" fill="none" stroke="#000" stroke-width=".2646"/>
    <circle cx="132.5" cy="112.65" r=".75"/>
    <path d="m126.5 104.5v5h10.5v2l3.5-4.5-3.5-4.5v2z" fill="#f6b8b8" stroke="#000" stroke-linejoin="round" stroke-width=".2646"/>
    <g fill="#000" stroke-width=".2646" aria-label="restore">
      <path d="m128.772 106.595q-.042-.025-.093-.036-.05-.012-.11-.012-.216 0-.331.14-.115.14-.115.402v.813h-.255v-1.544h.255v.24q.08-.14.208-.208.129-.069.312-.069.026 0 .058.004.031.003.07.01z"/>
      <path d="m130.296 107.067v.124h-1.165q.016.261.157.4.142.136.394.136.146 0 .282-.036.138-.036.273-.108v.24q-.136.058-.28.088-.143.03-.29.03-.37 0-.586-.214-.215-.215-.215-.582 0-.379.204-.6.205-.224.553-.224.311 0 .492.201.181.2.181.545zm-.253-.075q-.003-.208-.117-.332-.113-.124-.3-.124-.213 0-.341.12-.127.12-.146.338z"/>
      <path d="m131.697 106.404v.24q-.108-.056-.224-.083-.115-.028-.24-.028-.188 0-.283.058-.094.058-.094.174 0 .088.067.139.068.05.272.095l.087.02q.27.057.383.163.114.105.114.294 0 .215-.17.34-.17.126-.468.126-.124 0-.259-.025-.134-.024-.282-.072v-.262q.14.073.277.11.136.036.27.036.179 0 .275-.06.097-.062.097-.174 0-.103-.07-.158-.07-.056-.305-.107l-.088-.02q-.236-.05-.34-.152-.105-.103-.105-.282 0-.218.154-.337.154-.118.438-.118.14 0 .265.02.124.021.229.063z"/>
      <path d="m132.434 105.92v.438h.522v.197h-.522v.838q0 .189.05.243.053.053.212.053h.26v.213h-.26q-.294 0-.406-.11-.111-.11-.111-.399v-.838h-.186v-.197h.186v-.438z"/>
      <path d="m133.888 106.536q-.204 0-.323.16-.118.158-.118.435t.117.437q.118.159.324.159.202 0 .32-.16.12-.16.12-.436 0-.274-.12-.434-.118-.161-.32-.161zm0-.215q.33 0 .52.215.188.215.188.595t-.189.596q-.189.215-.52.215-.332 0-.52-.215-.188-.217-.188-.596 0-.38.188-.595.188-.215.52-.215z"/>
      <path d="m135.91 106.595q-.042-.025-.093-.036-.05-.012-.11-.012-.215 0-.331.14-.114.14-.114.402v.813h-.255v-1.544h.255v.24q.08-.14.208-.208.128-.069.311-.069.026 0 .058.004.032.003.07.01z"/>
      <path d="m137.435 107.067v.124h-1.166q.016.261.157.4.142.136.394.136.146 0 .283-.036.137-.036.272-.108v.24q-.136.058-.28.088-.143.03-.29.03-.37 0-.586-.214-.215-.215-.215-.582 0-.379.204-.6.206-.224.553-.224.311 0 .492.201.182.2.182.545zm-.254-.075q-.003-.208-.117-.332-.113-.124-.3-.124-.213 0-.34.12-.128.12-.147.338z"/>
    </g>
    <g stroke-width=".2646" aria-label="on call:">
      <path d="m126.911 102.574q-.248 0-.392-.152-.144-.153-.144-.418 0-.153.05-.311.05-.16.129-.268.125-.169.278-.25.153-.08.347-.08.24 0 .387.15.149.15.149.391 0 .167-.05.333-.048.166-.128.276-.123.168-.276.249-.154.08-.35.08zm-.295-.577q0 .191.079.287.08.094.243.094.232 0 .384-.203.154-.203.154-.515 0-.182-.082-.275-.082-.094-.24-.094-.13 0-.233.062-.102.06-.182.185-.06.093-.092.212-.031.12-.031.247z"/>
      <path d="m129.268 101.688-.165.85h-.233l.165-.842.018-.104q.006-.045.006-.072 0-.105-.067-.164-.067-.06-.186-.06-.186 0-.32.125-.135.123-.177.336l-.155.78h-.23l.272-1.408h.231l-.046.222q.097-.122.232-.19.136-.066.286-.066.186 0 .288.1.103.102.103.284 0 .045-.006.097-.005.051-.016.112z"/>
      <path d="m131.664 101.183-.046.23q-.083-.061-.177-.091-.094-.03-.194-.03-.11 0-.211.039-.1.039-.168.11-.108.11-.167.257-.059.147-.059.304 0 .19.094.283.096.093.29.093.095 0 .202-.029.108-.029.225-.087l-.044.23q-.1.04-.207.06-.106.022-.218.022-.28 0-.431-.14-.151-.14-.151-.4 0-.22.078-.403.08-.185.234-.332.105-.1.248-.152.142-.052.31-.052.098 0 .195.023.097.021.197.065z"/>
      <path d="m133.083 101.734-.157.804h-.232l.043-.214q-.102.126-.233.188-.13.062-.289.062-.18 0-.295-.11-.115-.11-.115-.282 0-.247.196-.39.198-.143.544-.143h.321l.013-.062q.003-.01.004-.021l.001-.038q0-.112-.092-.174-.09-.063-.255-.063-.113 0-.233.03-.118.028-.244.086l.04-.214q.131-.049.256-.072.126-.026.243-.026.249 0 .378.109.13.108.13.314 0 .041-.005.098-.006.055-.02.118zm-.25.096h-.232q-.284 0-.421.076-.136.076-.136.236 0 .11.07.173.07.063.193.063.189 0 .33-.135.14-.135.186-.362z"/>
      <path d="m133.75 100.581h.23l-.38 1.957h-.232z"/>
      <path d="m134.465 100.581h.231l-.38 1.957h-.232z"/>
      <path d="m135.102 101.206h.266l-.062.32h-.265zm-.197 1.012h.265l-.063.32h-.265z"/>
    </g>
    <path d="m90 82h35v44h-35z" fill="#dbecff" paint-order="stroke markers fill"/>
    <path d="m120.5 98.5h4.5v12.5h-4.5z" fill="#fff" paint-order="stroke markers fill"/>
    <g fill="#000" stroke-width=".2646" transform="rotate(-90)" aria-label="implant">
      <path d="m-109.95 121.985h.254v1.544h-.254zm0-.6h.254v.32h-.254z"/>
      <path d="m-107.964 122.281q.095-.17.227-.252.132-.081.312-.081.24 0 .372.17.13.168.13.479v.932h-.254v-.924q0-.222-.079-.329-.079-.108-.24-.108-.197 0-.311.131-.115.131-.115.357v.873h-.255v-.924q0-.223-.078-.329-.079-.108-.243-.108-.194 0-.308.133-.115.13-.115.355v.873h-.255v-1.544h.255v.24q.087-.142.208-.21.122-.067.288-.067.169 0 .286.085.118.086.175.248z"/>
      <path d="m-106.171 123.297v.819h-.255v-2.13h.255v.233q.08-.137.2-.203.123-.068.293-.068.281 0 .456.223.176.223.176.587t-.176.587q-.175.224-.456.224-.17 0-.292-.067-.122-.067-.201-.205zm.862-.539q0-.28-.116-.438-.114-.16-.315-.16t-.317.16q-.114.159-.114.438 0 .28.114.44.116.158.317.158t.315-.158q.116-.16.116-.44z"/>
      <path d="m-104.625 121.384h.253v2.145h-.253z"/>
      <path d="m-103.14 122.753q-.307 0-.426.07-.118.07-.118.24 0 .135.088.215.09.078.243.078.21 0 .337-.149.128-.15.128-.398v-.056zm.506-.105v.88h-.254v-.234q-.086.14-.216.208-.13.067-.317.067-.237 0-.377-.133t-.14-.357q0-.26.174-.392.175-.133.52-.133h.356v-.024q0-.175-.115-.27-.115-.097-.323-.097-.132 0-.257.032-.126.031-.242.095v-.234q.14-.054.27-.08.131-.028.255-.028.335 0 .5.174.166.173.166.526z"/>
      <path d="m-100.829 122.597v.932h-.253v-.924q0-.219-.086-.328-.085-.109-.256-.109-.205 0-.324.131-.118.131-.118.357v.873h-.255v-1.544h.255v.24q.09-.14.213-.208.124-.069.285-.069.266 0 .403.165.136.164.136.484z"/>
      <path d="m-100.072 121.547v.438h.522v.197h-.522v.838q0 .189.05.243.053.053.212.053h.26v.213h-.26q-.294 0-.406-.11-.111-.11-.111-.399v-.838h-.186v-.197h.186v-.438z"/>
    </g>
    <g fill="#4b76a6" stroke-width=".2646" aria-label="int3 int3 int3 ...">
      <path d="m91.212 111.66h.649v1.346h.503v.197h-1.26v-.197h.503v-1.15h-.395zm.395-.601h.254v.321h-.254z"/>
      <path d="m94.006 112.247v.956h-.255v-.956q0-.208-.073-.306t-.228-.098q-.178 0-.275.127-.095.125-.095.36v.873h-.253v-1.543h.253v.231q.068-.132.184-.2.115-.068.274-.068.235 0 .351.155.117.155.117.469z"/>
      <path d="m95.103 111.222v.438h.576v.197h-.576v.838q0 .17.065.238.065.068.226.068h.285v.202h-.31q-.285 0-.402-.114-.117-.115-.117-.394v-.838h-.412v-.197h.412v-.438z"/>
      <path d="m97.026 112.102q.202.054.31.192.107.136.107.341 0 .284-.191.447-.19.161-.528.161-.142 0-.29-.026-.147-.026-.289-.076v-.277q.14.073.277.109.136.036.271.036.23 0 .352-.104.123-.103.123-.297 0-.18-.123-.284-.123-.106-.332-.106h-.213v-.229h.212q.191 0 .299-.084.107-.084.107-.234 0-.159-.1-.243-.1-.085-.284-.085-.123 0-.254.027-.13.028-.274.083v-.256q.167-.044.296-.066.131-.022.232-.022.3 0 .48.151.18.15.18.4 0 .17-.095.282-.094.113-.274.16z"/>
      <path d="m91.212 115.47h.649v1.346h.503v.197h-1.26v-.197h.503v-1.15h-.395zm.395-.601h.254v.321h-.254z"/>
      <path d="m94.006 116.057v.956h-.255v-.956q0-.208-.073-.306t-.228-.098q-.178 0-.275.127-.095.125-.095.36v.873h-.253v-1.543h.253v.231q.068-.132.184-.2.115-.068.274-.068.235 0 .351.155.117.155.117.469z"/>
      <path d="m95.103 115.032v.438h.576v.197h-.576v.838q0 .17.065.238.065.068.226.068h.285v.202h-.31q-.285 0-.402-.114-.117-.115-.117-.394v-.838h-.412v-.197h.412v-.439z"/>
      <path d="m97.026 115.912q.202.054.31.192.107.136.107.341 0 .284-.191.447-.19.161-.528.161-.142 0-.29-.026-.147-.026-.289-.076v-.277q.14.073.277.109.136.036.271.036.23 0 .352-.104.123-.103.123-.297 0-.18-.123-.284-.123-.106-.332-.106h-.213v-.229h.212q.191 0 .299-.084.107-.084.107-.234 0-.159-.1-.243-.1-.085-.284-.085-.123 0-.254.027-.13.028-.274.083v-.256q.167-.044.296-.066.131-.022.232-.022.3 0 .48.151.18.15.18.4 0 .17-.095.282-.094.113-.274.16z"/>
      <path d="m91.212 119.28h.649v1.346h.503v.197h-1.26v-.197h.503v-1.15h-.395zm.395-.601h.254v.321h-.254z"/>
      <path d="m94.006 119.867v.956h-.255v-.956q0-.208-.073-.306t-.228-.098q-.178 0-.275.127-.095.125-.095.36v.873h-.253v-1.543h.253v.231q.068-.132.184-.2.115-.068.274-.068.235 0 .351.155.117.155.117.469z"/>
      <path d="m95.103 118.842v.438h.576v.197h-.576v.838q0 .17.065.238.065.068.226.068h.285v.202h-.31q-.285 0-.402-.114-.117-.115-.117-.394v-.838h-.412v-.197h.412v-.439z"/>
      <path d="m97.026 119.722q.202.054.31.192.107.136.107.341 0 .284-.191.447-.19.161-.528.161-.142 0-.29-.026-.147-.026-.289-.076v-.277q.14.073.277.109.136.036.271.036.23 0 .352-.104.123-.103.123-.297 0-.18-.123-.284-.123-.106-.332-.106h-.213v-.229h.212q.191 0 .299-.084.107-.084.107-.234 0-.159-.1-.243-.1-.085-.284-.085-.123 0-.254.027-.13.028-.274.083v-.256q.167-.044.296-.066.131-.022.232-.022.3 0 .48.151.18.15.18.4 0 .17-.095.282-.094.113-.274.16z"/>
      <path d="m91.533 123.443h.347v.42h-.347z"/>
      <path d="m93.232 123.443h.347v.42h-.347z"/>
      <path d="m94.931 123.443h.347v.42h-.347z"/>
    </g>
    <g fill="#000" stroke-width=".2646" aria-label="mov rax,restore call rax .word &lt;fn index&gt;">
      <path d="m91.79 100.387q.047-.1.119-.146.073-.048.175-.048.186 0 .262.144.077.144.077.542v.894h-.232v-.883q0-.327-.037-.405-.036-.08-.132-.08-.11 0-.152.085-.04.084-.04.4v.883h-.23v-.883q0-.33-.04-.408-.039-.077-.14-.077t-.141.085q-.039.084-.039.4v.883h-.23v-1.543h.23v.132q.046-.083.113-.125.07-.045.156-.045.105 0 .174.049.07.048.108.146z"/>
      <path d="m93.407 100.408q-.193 0-.292.15-.1.15-.1.445 0 .293.1.445.099.15.292.15.194 0 .293-.15.1-.152.1-.445 0-.295-.1-.445-.099-.15-.293-.15zm0-.215q.321 0 .49.208.171.208.171.602 0 .395-.17.603-.169.207-.491.207-.321 0-.49-.207-.17-.208-.17-.603 0-.394.17-.602.169-.208.49-.208z"/>
      <path d="m94.395 100.23h.263l.448 1.295.45-1.295h.262l-.548 1.543h-.327z"/>
      <path d="m99.247 100.548q-.081-.063-.165-.092-.084-.03-.185-.03-.237 0-.362.15-.126.149-.126.43v.767h-.255v-1.543h.255v.302q.064-.164.194-.251.133-.088.313-.088.094 0 .175.023.082.023.156.073z"/>
      <path d="m100.322 100.997h-.084q-.222 0-.335.079-.112.077-.112.231 0 .14.084.217.084.077.233.077.21 0 .33-.145.12-.146.12-.402v-.057zm.492-.104v.88h-.255v-.229q-.081.138-.205.204-.123.065-.3.065-.235 0-.376-.132-.14-.134-.14-.357 0-.258.172-.391.174-.134.509-.134h.34v-.04q-.001-.185-.094-.267-.092-.085-.295-.085-.13 0-.262.038-.132.037-.257.109v-.254q.14-.054.268-.08.13-.028.251-.028.192 0 .327.057.136.056.22.17.053.068.075.17.022.101.022.304z"/>
      <path d="m102.594 100.23-.552.738.606.805h-.294l-.452-.619-.45.62h-.294l.607-.806-.553-.738h.281l.41.558.406-.558z"/>
      <path d="m103.445 101.356h.347v.285l-.272.528h-.212l.136-.528z"/>
      <path d="m106.038 100.656q-.066-.061-.156-.091-.088-.03-.194-.03-.128 0-.225.045-.095.044-.147.13-.033.052-.047.126-.012.075-.012.226v.711h-.404v-1.543h.404v.24q.059-.133.181-.204.123-.073.287-.073.083 0 .161.02.08.02.152.058z"/>
      <path d="m107.67 101.697q-.141.058-.287.087-.146.03-.309.03-.387 0-.592-.208-.204-.208-.204-.598 0-.377.197-.596.197-.22.537-.22.343 0 .532.204.19.203.19.572v.164h-1.046q.001.182.108.272.106.09.317.09.139 0 .274-.04t.283-.127zm-.342-.868q-.003-.16-.083-.241-.078-.083-.233-.083-.139 0-.222.086-.082.084-.097.24z"/>
      <path d="m109.216 100.278v.353q-.112-.072-.233-.108-.12-.037-.241-.037-.135 0-.204.04-.07.039-.07.116 0 .11.296.179l.015.004.116.028q.22.052.322.17.103.115.103.313 0 .239-.157.359-.155.118-.47.118-.139 0-.285-.025-.146-.023-.296-.071v-.353q.134.076.271.116.14.04.27.04.141 0 .214-.042.073-.041.073-.12 0-.077-.052-.118-.051-.041-.246-.088l-.111-.025q-.232-.053-.338-.164-.106-.112-.106-.3 0-.222.161-.346.162-.124.454-.124.13 0 .26.022.131.02.254.063z"/>
      <path d="m110.5 99.792v.438h.528v.31h-.528v.73q0 .104.05.149.05.044.168.044h.31v.31h-.34q-.346 0-.47-.11-.122-.112-.122-.412v-.711h-.394v-.31h.394v-.438z"/>
      <path d="m112.097 100.52q-.144 0-.227.129-.083.126-.083.354 0 .227.083.355.083.127.227.127.146 0 .229-.127.083-.128.083-.355 0-.228-.083-.354-.083-.128-.229-.128zm-.714.483q0-.374.193-.591.195-.22.521-.22.328 0 .521.22.194.217.194.59 0 .374-.194.593-.193.218-.52.218t-.522-.218q-.193-.219-.193-.592z"/>
      <path d="m114.534 100.656q-.067-.061-.156-.091-.088-.03-.194-.03-.129 0-.225.045-.095.044-.148.13-.033.052-.046.126-.013.075-.013.226v.711h-.404v-1.543h.404v.24q.06-.133.182-.204.123-.073.287-.073.082 0 .16.02.08.02.153.058z"/>
      <path d="m116.165 101.697q-.14.058-.286.087-.147.03-.31.03-.386 0-.592-.208-.204-.208-.204-.598 0-.377.197-.596.197-.22.538-.22.343 0 .532.204.19.203.19.572v.164h-1.046q.001.182.107.272.107.09.317.09.14 0 .275-.04t.282-.127zm-.342-.868q-.003-.16-.082-.241-.079-.083-.233-.083-.14 0-.222.086-.083.084-.098.24z"/>
      <path d="m92.321 105.505q-.102.059-.21.088-.108.03-.221.03-.359 0-.561-.215-.201-.215-.201-.595t.2-.596q.203-.214.562-.214.111 0 .217.028.106.03.214.09v.266q-.1-.09-.203-.13-.1-.04-.228-.04-.239 0-.367.155-.128.154-.128.44 0 .286.128.442.13.154.367.154.132 0 .237-.04.104-.041.194-.127z"/>
      <path d="m93.525 104.807h-.084q-.222 0-.335.079-.111.077-.111.231 0 .14.084.217.084.077.233.077.21 0 .33-.145.119-.146.12-.402v-.057zm.492-.104v.88h-.255v-.229q-.08.138-.205.204-.123.065-.299.065-.236 0-.376-.132-.14-.134-.14-.357 0-.258.172-.391.173-.134.508-.134h.34v-.04q-.001-.185-.093-.267-.093-.085-.295-.085-.13 0-.262.038-.132.037-.258.109v-.254q.14-.054.269-.08.13-.028.25-.028.192 0 .327.057.137.056.22.17.053.068.075.17.022.1.022.304z"/>
      <path d="m95.138 105.024q0 .17.062.257.063.087.186.087h.296v.215h-.321q-.227 0-.353-.146-.124-.146-.124-.413v-1.402h-.406v-.198h.66z"/>
      <path d="m96.837 105.024q0 .17.062.257.063.087.186.087h.296v.215h-.32q-.228 0-.354-.146-.124-.146-.124-.413v-1.402h-.406v-.198h.66z"/>
      <path d="m100.946 104.358q-.081-.063-.165-.092-.084-.03-.185-.03-.237 0-.362.15-.126.149-.126.43v.767h-.255v-1.543h.255v.302q.064-.164.195-.251.132-.088.312-.088.094 0 .175.023.082.023.156.073z"/>
      <path d="m102.021 104.807h-.084q-.222 0-.335.079-.112.077-.112.231 0 .14.084.217.085.077.233.077.21 0 .33-.145.12-.146.121-.402v-.057zm.492-.104v.88h-.255v-.229q-.081.138-.205.204-.123.065-.3.065-.235 0-.376-.132-.14-.134-.14-.357 0-.258.172-.391.174-.134.509-.134h.34v-.04q-.001-.185-.094-.267-.092-.085-.295-.085-.13 0-.261.038-.133.037-.258.109v-.254q.14-.054.269-.08.13-.028.25-.028.192 0 .327.057.136.056.22.17.053.068.075.17.022.1.022.304z"/>
      <path d="m104.293 104.04-.552.738.606.805h-.293l-.452-.619-.451.62h-.294l.607-.806-.553-.738h.281l.41.558.406-.558z"/>
      <path d="m91.533 108.973h.347v.42h-.347z"/>
      <path d="m92.558 107.85h.25l.27 1.247.22-.797h.216l.224.797.268-1.247h.251l-.36 1.543h-.243l-.247-.846-.245.846h-.243z"/>
      <path d="m95.106 108.028q-.193 0-.292.15-.1.15-.1.445 0 .293.1.445.1.15.292.15.194 0 .294-.15.099-.152.099-.445 0-.295-.1-.445-.099-.15-.293-.15zm0-.215q.321 0 .49.208.171.208.171.602 0 .395-.169.603-.17.207-.492.207-.321 0-.49-.207-.17-.208-.17-.603 0-.394.17-.602.169-.208.49-.208z"/>
      <path d="m97.548 108.168q-.081-.063-.165-.092-.085-.03-.185-.03-.237 0-.363.15-.125.149-.125.43v.767h-.255v-1.543h.255v.302q.063-.164.194-.251.133-.088.313-.088.094 0 .175.023.081.023.156.073z"/>
      <path d="m98.838 108.047v-.798h.253v2.144h-.253v-.194q-.064.114-.17.175-.105.06-.242.06-.28 0-.441-.217-.16-.218-.16-.6 0-.376.161-.59.161-.214.44-.214.139 0 .245.06.106.06.167.174zm-.746.576q0 .295.094.445.094.15.277.15.183 0 .278-.151.097-.152.097-.444 0-.294-.097-.444-.095-.151-.278-.151-.183 0-.277.15-.094.15-.094.445z"/>
      <path d="m102.631 108.069-1.17.44 1.17.438v.252l-1.456-.576v-.229l1.456-.576z"/>
      <path d="m104.218 107.249v.21h-.288q-.137 0-.19.057-.053.055-.053.197v.137h.53v.197h-.53v1.346h-.254v-1.346h-.412v-.197h.412v-.108q0-.253.116-.373.117-.12.364-.12z"/>
      <path d="m105.9 108.437v.956h-.255v-.956q0-.208-.073-.306t-.229-.098q-.177 0-.274.127-.095.125-.095.36v.873h-.253v-1.543h.253v.231q.068-.132.183-.2.116-.068.275-.068.235 0 .351.155.117.155.117.469z"/>
      <path d="m108.203 107.85h.649v1.346h.503v.197h-1.26v-.197h.503v-1.15h-.395zm.395-.601h.254v.321h-.254z"/>
      <path d="m110.998 108.437v.956h-.255v-.956q0-.208-.073-.306t-.23-.098q-.177 0-.273.127-.096.125-.096.36v.873h-.253v-1.543h.253v.231q.068-.132.184-.2.116-.068.274-.068.236 0 .351.155.118.155.118.469z"/>
      <path d="m112.43 108.047v-.798h.254v2.144h-.253v-.194q-.064.114-.17.175-.105.06-.242.06-.28 0-.441-.217-.16-.218-.16-.6 0-.376.161-.59.161-.214.44-.214.139 0 .245.06.106.06.167.174zm-.745.576q0 .295.094.445.094.15.277.15.183 0 .278-.151.097-.152.097-.444 0-.294-.097-.444-.095-.151-.278-.151-.183 0-.277.15-.094.15-.094.445z"/>
      <path d="m114.48 108.558v.124h-1.098v.008q0 .252.13.39.133.138.373.138.12 0 .253-.039.132-.038.283-.117v.252q-.145.06-.28.089-.134.03-.26.03-.359 0-.561-.215-.203-.217-.203-.595 0-.37.198-.59.199-.22.53-.22.294 0 .464.2.17.199.17.545zm-.254-.074q-.006-.224-.106-.34-.099-.116-.286-.116-.184 0-.302.12-.119.122-.14.337z"/>
      <path d="m116.187 107.85-.552.738.606.805h-.294l-.452-.619-.45.62h-.294l.607-.806-.553-.738h.281l.41.558.406-.558z"/>
      <path d="m116.467 108.069v-.251l1.457.576v.229l-1.457.576v-.252l1.171-.437z"/>
    </g>
    <g fill="#4b76a6" stroke-width=".2646" aria-label="int3 int3 int3 ...">
      <path d="m91.212 84.49h.649v1.346h.503v.197h-1.26v-.197h.503v-1.15h-.395zm.395-.601h.254v.321h-.254z"/>
      <path d="m94.006 85.077v.956h-.255v-.956q0-.208-.073-.306t-.228-.098q-.178 0-.275.127-.095.125-.095.36v.873h-.253v-1.543h.253v.231q.068-.132.184-.2.115-.068.274-.068.235 0 .351.155.117.155.117.469z"/>
      <path d="m95.103 84.052v.438h.576v.197h-.576v.838q0 .17.065.238.065.068.226.068h.285v.202h-.31q-.285 0-.402-.114-.117-.115-.117-.394v-.838h-.412v-.197h.412v-.438z"/>
      <path d="m97.026 84.932q.202.054.31.192.107.136.107.341 0 .284-.191.447-.19.161-.528.161-.142 0-.29-.026-.147-.026-.289-.076v-.277q.14.073.277.109.136.036.271.036.23 0 .352-.103.123-.104.123-.298 0-.18-.123-.284-.123-.106-.332-.106h-.213v-.229h.212q.191 0 .299-.084.107-.084.107-.234 0-.159-.1-.243-.1-.085-.284-.085-.123 0-.254.027-.13.028-.274.083v-.256q.167-.044.296-.066.131-.022.232-.022.3 0 .48.151.18.15.18.4 0 .17-.095.282-.094.113-.274.16z"/>
      <path d="m91.212 88.3h.649v1.346h.503v.197h-1.26v-.197h.503v-1.15h-.395zm.395-.601h.254v.321h-.254z"/>
      <path d="m94.006 88.887v.956h-.255v-.956q0-.208-.073-.306t-.228-.098q-.178 0-.275.127-.095.125-.095.36v.873h-.253v-1.543h.253v.231q.068-.132.184-.2.115-.068.274-.068.235 0 .351.155.117.155.117.469z"/>
      <path d="m95.103 87.862v.438h.576v.197h-.576v.838q0 .17.065.238.065.068.226.068h.285v.202h-.31q-.285 0-.402-.114-.117-.115-.117-.394v-.838h-.412v-.197h.412v-.438z"/>
      <path d="m97.026 88.742q.202.054.31.192.107.136.107.341 0 .284-.191.447-.19.161-.528.161-.142 0-.29-.026-.147-.026-.289-.076v-.277q.14.073.277.109.136.036.271.036.23 0 .352-.103.123-.104.123-.298 0-.18-.123-.284-.123-.106-.332-.106h-.213v-.229h.212q.191 0 .299-.084.107-.084.107-.234 0-.159-.1-.243-.1-.085-.284-.085-.123 0-.254.027-.13.028-.274.083v-.256q.167-.044.296-.066.131-.022.232-.022.3 0 .48.151.18.15.18.4 0 .17-.095.282-.094.113-.274.16z"/>
      <path d="m91.212 92.11h.649v1.346h.503v.197h-1.26v-.197h.503v-1.15h-.395zm.395-.601h.254v.321h-.254z"/>
      <path d="m94.006 92.697v.956h-.255v-.956q0-.208-.073-.306t-.228-.098q-.178 0-.275.127-.095.125-.095.36v.873h-.253v-1.543h.253v.231q.068-.132.184-.2.115-.068.274-.068.235 0 .351.155.117.155.117.469z"/>
      <path d="m95.103 91.672v.438h.576v.197h-.576v.838q0 .17.065.238.065.068.226.068h.285v.202h-.31q-.285 0-.402-.114-.117-.115-.117-.394v-.838h-.412v-.197h.412v-.438z"/>
      <path d="m97.026 92.552q.202.054.31.192.107.136.107.341 0 .284-.191.447-.19.161-.528.161-.142 0-.29-.026-.147-.026-.289-.076v-.277q.14.073.277.109.136.036.271.036.23 0 .352-.103.123-.104.123-.298 0-.18-.123-.284-.123-.106-.332-.106h-.213v-.229h.212q.191 0 .299-.084.107-.084.107-.234 0-.159-.1-.243-.1-.085-.284-.085-.123 0-.254.027-.13.028-.274.083v-.256q.167-.044.296-.066.131-.022.232-.022.3 0 .48.151.18.15.18.4 0 .17-.095.282-.094.113-.274.16z"/>
      <path d="m91.533 96.273h.347v.42h-.347z"/>
      <path d="m93.232 96.273h.347v.42h-.347z"/>
      <path d="m94.931 96.273h.347v.42h-.347z"/>
    </g>
    <path d="m76.5 88v5h8.5v2l3.5-4.5-3.5-4.5v2z" fill="#c0f0cc" stroke="#000" stroke-linejoin="round" stroke-width=".2646"/>
    <path d="m76.5 104.5v5h8.5v2l3.5-4.5-3.5-4.5v2z" fill="#dbecff" stroke="#000" stroke-linejoin="round" stroke-width=".2646"/>
    <g fill="#000" stroke-width=".2646" aria-label="wipe">
      <path d="m77.73 106.279h.254l.317 1.204.316-1.204h.299l.317 1.204.315-1.204h.254l-.404 1.543h-.3l-.331-1.265-.334 1.265h-.299z"/>
      <path d="m80.186 106.279h.254v1.543h-.254zm0-.601h.254v.32h-.254z"/>
      <path d="m81.216 107.59v.82h-.255v-2.131h.255v.234q.08-.138.2-.204.123-.068.293-.068.281 0 .456.224.176.223.176.587t-.176.587q-.175.223-.456.223-.17 0-.292-.066-.121-.068-.201-.205zm.862-.538q0-.28-.115-.438-.115-.16-.316-.16t-.317.16q-.114.158-.114.438t.114.44q.116.158.317.158t.316-.159q.115-.16.115-.44z"/>
      <path d="m84.082 106.987v.124h-1.166q.017.262.157.4.142.136.394.136.146 0 .283-.036.138-.036.273-.107v.24q-.137.057-.28.088-.143.03-.29.03-.37 0-.587-.215-.214-.215-.214-.581 0-.38.203-.601.206-.224.553-.224.311 0 .492.202.182.2.182.544zm-.254-.074q-.002-.208-.117-.333-.113-.124-.3-.124-.212 0-.34.12-.127.12-.147.338z"/>
    </g>
    <g fill="#000" stroke-width=".2646" aria-label="kill">
      <path d="m77.937 89.375h.255v1.266l.756-.666h.324l-.819.723.853.82h-.33l-.784-.753v.754h-.255z"/>
      <path d="m79.58 89.975h.254v1.544h-.253zm0-.6h.254v.32h-.253z"/>
      <path d="m80.365 89.375h.253v2.144h-.253z"/>
      <path d="m81.149 89.375h.253v2.144h-.253z"/>
    </g>
    <path d="m40 82h35v44h-35z" fill="#ffebd9" paint-order="stroke markers fill"/>
    <g fill="#986a44" stroke-width=".2646" aria-label="sub rsp,0x8 mov edx,0x30 mov edi,0x1 xor eax,eax lea rsi,[rip+0xca3] call 1090 ...">
      <path d="m42.2 100.288v.248q-.11-.063-.22-.095t-.224-.032q-.172 0-.258.057-.084.055-.084.17 0 .103.064.154.063.05.315.099l.102.02q.189.035.285.142.098.108.098.28 0 .229-.162.358-.163.129-.452.129-.115 0-.24-.025-.126-.024-.272-.072v-.262q.142.073.272.11.13.036.245.036.168 0 .26-.067.093-.07.093-.192 0-.176-.338-.244l-.01-.003-.096-.019q-.219-.043-.32-.143-.1-.102-.1-.277 0-.222.15-.342.15-.121.429-.121.124 0 .238.023.114.022.225.068z"/>
      <path d="m42.827 101.193v-.956h.253v.956q0 .208.073.306.075.098.23.098.178 0 .273-.125.095-.127.095-.363v-.872h.255v1.54h-.255v-.23q-.067.133-.184.202-.116.069-.272.069-.237 0-.353-.155-.115-.156-.115-.47z"/>
      <path d="m45.522 101.007q0-.295-.094-.445-.093-.15-.277-.15-.184 0-.28.152-.094.15-.094.443 0 .292.095.444.095.152.28.152.183 0 .276-.15.094-.15.094-.446zm-.745-.576q.06-.113.166-.173.108-.06.248-.06.279 0 .439.214.16.214.16.59 0 .382-.162.6-.16.216-.44.216-.137 0-.243-.06-.105-.06-.168-.175v.195h-.254v-2.145h.254z"/>
      <path d="m49.247 100.553q-.081-.064-.165-.093-.084-.029-.185-.029-.237 0-.362.15-.126.148-.126.43v.767h-.255v-1.544h.255v.302q.064-.164.194-.25.133-.089.313-.089.094 0 .175.023.082.024.156.073z"/>
      <path d="m50.695 100.288v.248q-.109-.063-.219-.095t-.224-.032q-.173 0-.258.057-.084.055-.084.17 0 .103.063.154.064.05.316.099l.102.02q.189.035.285.142.098.108.098.28 0 .229-.163.358-.162.129-.452.129-.114 0-.24-.025-.125-.024-.271-.072v-.262q.142.073.271.11.13.036.246.036.168 0 .26-.067.093-.07.093-.192 0-.176-.338-.244l-.011-.003-.095-.019q-.22-.043-.32-.143-.1-.102-.1-.277 0-.222.15-.342.15-.121.428-.121.124 0 .239.023.114.022.224.068z"/>
      <path d="m51.57 101.583v.782h-.255v-2.13h.255v.196q.064-.114.168-.173.107-.06.244-.06.28 0 .439.215.16.217.16.6 0 .376-.16.591-.16.214-.439.214-.14 0-.246-.06-.105-.06-.166-.175zm.745-.576q0-.295-.094-.445-.093-.15-.276-.15-.184 0-.28.152-.095.15-.095.443 0 .292.095.444.096.152.28.152.183 0 .276-.15.094-.15.094-.446z"/>
      <path d="m53.444 101.36h.348v.285l-.272.528h-.212l.136-.528z"/>
      <path d="m55.117 100.744q0-.076.053-.13.054-.056.128-.056.077 0 .132.055.055.055.055.131 0 .077-.055.131-.053.054-.132.054-.077 0-.13-.053-.05-.052-.05-.132zm.184-.84q-.195 0-.291.209-.095.21-.095.638 0 .427.095.637.096.21.29.21.196 0 .291-.21.097-.21.097-.637 0-.429-.097-.638-.095-.21-.29-.21zm0-.221q.33 0 .497.27.17.27.17.798 0 .526-.17.797-.168.27-.497.27-.33 0-.498-.27-.168-.27-.168-.797 0-.528.168-.798t.498-.27z"/>
      <path d="m57.692 100.234-.553.739.606.805h-.293l-.452-.62-.45.62h-.294l.606-.805-.553-.739h.282l.409.558.406-.558z"/>
      <path d="m58.699 100.8q-.186 0-.288.105-.1.104-.1.294t.101.296q.104.105.287.105.187 0 .288-.103.102-.105.102-.298 0-.189-.103-.294-.102-.104-.287-.104zm-.243-.115q-.177-.046-.278-.17-.1-.124-.1-.299 0-.245.168-.388.166-.145.453-.145.288 0 .455.145.166.143.166.388 0 .175-.1.3-.1.123-.277.169.207.045.315.183.11.138.11.357 0 .278-.177.436-.178.157-.492.157t-.492-.156q-.176-.157-.176-.434 0-.22.108-.358.11-.14.317-.185zm-.1-.442q0 .165.088.252.088.086.255.086.168 0 .256-.086.088-.087.088-.253 0-.168-.088-.256-.087-.088-.256-.088-.167 0-.255.09-.088.088-.088.255z"/>
      <path d="m41.79 104.201q.047-.099.119-.146.073-.048.175-.048.186 0 .262.145.077.143.077.541v.895h-.232v-.884q0-.326-.037-.405-.036-.08-.132-.08-.11 0-.152.086-.04.084-.04.4v.883h-.23v-.884q0-.33-.04-.408-.039-.077-.14-.077t-.141.086q-.039.084-.039.4v.883h-.23v-1.544h.23v.132q.046-.082.113-.125.07-.044.156-.044.105 0 .174.048.07.048.108.146z"/>
      <path d="m43.407 104.222q-.193 0-.292.15-.1.15-.1.445 0 .294.1.445.099.15.292.15.194 0 .293-.15.1-.151.1-.445 0-.295-.1-.445-.099-.15-.293-.15zm0-.215q.321 0 .49.208.171.208.171.602 0 .396-.17.604-.169.207-.491.207-.321 0-.49-.207-.17-.208-.17-.604 0-.394.17-.602.169-.208.49-.208z"/>
      <path d="m44.395 104.044h.263l.448 1.296.45-1.296h.262l-.548 1.544h-.327z"/>
      <path d="m49.188 104.753v.124h-1.099v.008q0 .252.131.39.133.137.372.137.122 0 .254-.038.132-.039.282-.117v.252q-.144.06-.28.088-.133.03-.258.03-.36 0-.563-.215-.202-.216-.202-.595 0-.37.198-.59.199-.22.53-.22.294 0 .464.2.17.2.17.545zm-.254-.075q-.005-.223-.106-.339-.1-.117-.287-.117-.183 0-.301.121-.119.122-.14.337z"/>
      <path d="m50.537 104.241v-.798h.253v2.145h-.253v-.195q-.064.115-.17.175-.104.06-.242.06-.28 0-.441-.217-.16-.218-.16-.6 0-.375.161-.59.161-.214.44-.214.139 0 .245.06.106.06.167.174zm-.746.576q0 .295.094.445.094.15.277.15.183 0 .278-.151.097-.152.097-.444 0-.293-.097-.443-.095-.152-.278-.152-.183 0-.277.15-.094.15-.094.445z"/>
      <path d="m52.594 104.044-.552.739.606.805h-.294l-.452-.62-.45.62h-.294l.607-.805-.553-.739h.281l.41.558.406-.558z"/>
      <path d="m53.444 105.17h.348v.285l-.272.528h-.212l.136-.528z"/>
      <path d="m55.117 104.554q0-.076.053-.13.054-.056.128-.056.077 0 .132.055.055.055.055.131 0 .077-.055.131-.053.054-.132.054-.077 0-.13-.053-.05-.052-.05-.132zm.184-.84q-.195 0-.291.209-.095.21-.095.638 0 .427.095.637.096.21.29.21.196 0 .291-.21.097-.21.097-.637 0-.429-.097-.638-.095-.21-.29-.21zm0-.221q.33 0 .497.27.17.27.17.798 0 .526-.17.797-.168.27-.497.27-.33 0-.498-.27-.168-.27-.168-.797 0-.528.168-.798t.498-.27z"/>
      <path d="m57.692 104.044-.553.739.606.805h-.293l-.452-.62-.45.62h-.294l.606-.805-.553-.739h.282l.409.558.406-.558z"/>
      <path d="m58.92 104.487q.202.053.31.191.107.137.107.342 0 .284-.192.446-.19.162-.527.162-.142 0-.29-.027-.147-.026-.29-.075v-.277q.141.073.278.108.136.036.271.036.23 0 .352-.103.122-.103.122-.298 0-.179-.122-.284-.123-.106-.332-.106h-.213v-.228h.213q.191 0 .299-.085.107-.084.107-.234 0-.158-.1-.242-.1-.086-.284-.086-.123 0-.254.028-.13.027-.274.083v-.257q.167-.044.296-.066.131-.022.232-.022.3 0 .48.152.18.15.18.4 0 .169-.095.282-.094.113-.275.16z"/>
      <path d="m60.215 104.554q0-.076.052-.13.054-.056.128-.056.077 0 .133.055.055.055.055.131 0 .077-.055.131-.054.054-.133.054-.077 0-.13-.053-.05-.052-.05-.132zm.183-.84q-.194 0-.29.209-.096.21-.096.638 0 .427.095.637.097.21.291.21.196 0 .29-.21.097-.21.097-.637 0-.429-.096-.638-.095-.21-.29-.21zm0-.221q.33 0 .498.27.169.27.169.798 0 .526-.17.797-.168.27-.497.27-.33 0-.497-.27-.169-.27-.169-.797 0-.528.169-.798.168-.27.497-.27z"/>
      <path d="m41.79 108.011q.047-.099.119-.146.073-.048.175-.048.186 0 .262.145.077.143.077.541v.895h-.232v-.884q0-.326-.037-.405-.036-.08-.132-.08-.11 0-.152.086-.04.084-.04.4v.883h-.23v-.884q0-.33-.04-.408-.039-.077-.14-.077t-.141.086q-.039.084-.039.4v.883h-.23v-1.544h.23v.132q.046-.082.113-.125.07-.044.156-.044.105 0 .174.048.07.048.108.146z"/>
      <path d="m43.407 108.032q-.193 0-.292.15-.1.15-.1.445 0 .294.1.445.099.15.292.15.194 0 .293-.15.1-.151.1-.445 0-.295-.1-.445-.099-.15-.293-.15zm0-.215q.321 0 .49.208.171.208.171.602 0 .396-.17.604-.169.207-.491.207-.321 0-.49-.207-.17-.208-.17-.604 0-.394.17-.602.169-.208.49-.208z"/>
      <path d="m44.395 107.854h.263l.448 1.296.45-1.296h.262l-.548 1.544h-.327z"/>
      <path d="m49.188 108.563v.124h-1.099v.008q0 .252.131.39.133.137.372.137.122 0 .254-.038.132-.039.282-.117v.252q-.144.06-.28.088-.133.03-.258.03-.36 0-.563-.215-.202-.216-.202-.595 0-.37.198-.59.199-.22.53-.22.294 0 .464.2.17.2.17.545zm-.254-.075q-.005-.223-.106-.339-.1-.117-.287-.117-.183 0-.301.121-.119.122-.14.337z"/>
      <path d="m50.537 108.051v-.798h.253v2.145h-.253v-.195q-.064.115-.17.175-.104.06-.242.06-.28 0-.441-.217-.16-.217-.16-.6 0-.375.161-.589.161-.215.44-.215.139 0 .245.06.106.06.167.174zm-.746.576q0 .295.094.445.094.15.277.15.183 0 .278-.151.097-.152.097-.444 0-.293-.097-.443-.095-.152-.278-.152-.183 0-.277.15-.094.15-.094.445z"/>
      <path d="m51.406 107.854h.65v1.347h.502v.197h-1.26v-.197h.504v-1.15h-.396zm.396-.6h.253v.32h-.253z"/>
      <path d="m53.444 108.98h.348v.285l-.272.528h-.212l.136-.528z"/>
      <path d="m55.117 108.364q0-.076.053-.13.054-.056.128-.056.077 0 .132.055.055.055.055.131 0 .077-.055.131-.053.054-.132.054-.077 0-.13-.053-.05-.052-.05-.132zm.184-.84q-.195 0-.291.209-.095.21-.095.638 0 .427.095.637.096.21.29.21.196 0 .291-.21.097-.21.097-.637 0-.429-.097-.638-.095-.21-.29-.21zm0-.221q.33 0 .497.27.17.27.17.798 0 .526-.17.797-.168.27-.497.27-.33 0-.498-.27-.168-.27-.168-.797 0-.528.168-.798t.498-.27z"/>
      <path d="m57.692 107.854-.553.739.606.805h-.293l-.452-.62-.45.62h-.294l.606-.805-.553-.739h.282l.409.558.406-.558z"/>
      <path d="m58.222 109.163h.433v-1.572l-.466.105v-.254l.463-.102h.278v1.823h.428v.235h-1.136z"/>
      <path d="m42.4 111.664-.553.739.606.805h-.293l-.452-.62-.45.62h-.294l.606-.805-.553-.739h.281l.41.558.406-.558z"/>
      <path d="m43.407 111.842q-.193 0-.292.15-.1.15-.1.445 0 .294.1.445.099.15.292.15.194 0 .293-.15.1-.151.1-.445 0-.295-.1-.445-.099-.15-.293-.15zm0-.215q.321 0 .49.208.171.208.171.602 0 .396-.17.604-.169.207-.491.207-.321 0-.49-.207-.17-.208-.17-.604 0-.394.17-.602.169-.208.49-.208z"/>
      <path d="m45.849 111.983q-.082-.064-.166-.093-.084-.029-.184-.029-.237 0-.363.15-.125.148-.125.43v.767h-.255v-1.544h.255v.302q.063-.164.194-.25.133-.089.313-.089.094 0 .175.023.081.024.156.073z"/>
      <path d="m49.188 112.373v.124h-1.099v.008q0 .252.131.39.133.137.372.137.122 0 .254-.038.132-.039.282-.117v.252q-.144.059-.28.088-.133.03-.258.03-.36 0-.563-.215-.202-.216-.202-.595 0-.37.198-.59.199-.22.53-.22.294 0 .464.2.17.2.17.545zm-.254-.075q-.005-.223-.106-.339-.1-.117-.287-.117-.183 0-.301.121-.119.122-.14.337z"/>
      <path d="m50.322 112.432h-.084q-.222 0-.335.078-.112.077-.112.232 0 .139.084.216.084.077.233.077.21 0 .33-.144.12-.146.12-.403v-.056zm.492-.105v.88h-.255v-.228q-.081.138-.205.204-.123.065-.3.065-.235 0-.376-.133-.14-.133-.14-.357 0-.257.172-.39.174-.135.509-.135h.34v-.04q-.002-.184-.094-.267-.092-.084-.295-.084-.13 0-.262.037t-.257.109v-.254q.14-.053.268-.08.13-.027.251-.027.192 0 .327.056.136.057.22.17.053.069.075.17t.022.304z"/>
      <path d="m52.594 111.664-.552.739.606.805h-.294l-.452-.62-.45.62h-.294l.607-.805-.553-.739h.281l.41.558.406-.558z"/>
      <path d="m53.444 112.79h.348v.285l-.272.528h-.212l.136-.528z"/>
      <path d="m55.984 112.373v.124h-1.098v.008q0 .252.13.39.133.137.373.137.121 0 .253-.038.133-.039.283-.117v.252q-.145.059-.28.088-.133.03-.259.03-.36 0-.562-.215-.203-.216-.203-.595 0-.37.199-.59.198-.22.529-.22.295 0 .464.2.171.2.171.545zm-.253-.075q-.006-.223-.106-.339-.1-.117-.287-.117-.183 0-.302.121-.118.122-.14.337z"/>
      <path d="m57.118 112.432h-.084q-.222 0-.335.078-.111.077-.111.232 0 .139.084.216.084.077.233.077.21 0 .33-.144.119-.146.12-.403v-.056zm.492-.105v.88h-.255v-.228q-.08.138-.205.204-.123.065-.299.065-.236 0-.376-.133t-.14-.357q0-.257.171-.39.174-.135.509-.135h.34v-.04q-.001-.184-.093-.267-.093-.084-.295-.084-.13 0-.262.037t-.258.109v-.254q.14-.053.269-.08.13-.027.25-.027.192 0 .327.056.137.057.22.17.053.069.075.17t.022.304z"/>
      <path d="m59.39 111.664-.552.739.606.805h-.293l-.452-.62-.45.62h-.294l.606-.805-.552-.739h.28l.41.558.406-.558z"/>
      <path d="m41.74 116.458q0 .171.061.258.064.087.186.087h.297v.215h-.321q-.228 0-.353-.146-.124-.147-.124-.414v-1.401h-.407v-.199h.66z"/>
      <path d="m44.09 116.183v.124h-1.098v.008q0 .252.131.39.132.137.372.137.121 0 .254-.038.132-.039.282-.117v.252q-.145.06-.28.088-.133.03-.259.03-.36 0-.562-.215-.202-.216-.202-.595 0-.37.198-.59.198-.22.53-.22.294 0 .464.2.17.2.17.545zm-.253-.075q-.006-.223-.106-.339-.1-.117-.287-.117-.183 0-.302.121-.118.122-.14.337z"/>
      <path d="m45.225 116.242h-.085q-.221 0-.334.078-.112.078-.112.232 0 .14.084.216.084.077.233.077.21 0 .33-.144.12-.146.12-.403v-.056zm.491-.105v.88h-.254v-.228q-.082.138-.206.204-.122.065-.299.065-.235 0-.376-.133-.14-.133-.14-.357 0-.257.172-.39.173-.135.508-.135h.34v-.04q0-.184-.093-.267-.093-.084-.295-.084-.13 0-.262.037t-.258.109v-.254q.141-.053.27-.08.129-.027.25-.027.191 0 .327.056.136.057.22.17.052.069.074.17t.022.304z"/>
      <path d="m49.247 115.793q-.081-.064-.165-.093-.084-.029-.185-.029-.237 0-.362.15-.126.148-.126.43v.767h-.255v-1.544h.255v.302q.064-.164.194-.25.133-.089.313-.089.094 0 .175.023.082.024.156.073z"/>
      <path d="m50.695 115.528v.248q-.109-.063-.219-.095t-.224-.032q-.173 0-.258.057-.084.055-.084.17 0 .103.063.154.064.05.316.099l.102.019q.189.036.285.143.098.108.098.28 0 .229-.163.358-.162.129-.452.129-.114 0-.24-.025-.125-.024-.271-.072v-.262q.142.073.271.11.13.036.246.036.168 0 .26-.067.093-.07.093-.192 0-.176-.338-.244l-.011-.003-.095-.019q-.22-.043-.32-.143-.1-.102-.1-.277 0-.222.15-.342.15-.121.428-.121.124 0 .239.023.114.022.224.068z"/>
      <path d="m51.406 115.474h.65v1.347h.502v.197h-1.26v-.197h.504v-1.15h-.396zm.396-.6h.253v.32h-.253z"/>
      <path d="m53.444 116.6h.348v.285l-.272.528h-.212l.136-.528z"/>
      <path d="m55.09 114.873h.584v.197h-.33v2.123h.33v.197h-.584z"/>
      <path d="m57.743 115.793q-.082-.064-.166-.093-.084-.029-.184-.029-.237 0-.363.15-.125.148-.125.43v.767h-.255v-1.544h.255v.302q.063-.164.194-.25.132-.089.313-.089.094 0 .175.023.081.024.156.073z"/>
      <path d="m58.203 115.474h.649v1.347h.503v.197h-1.26v-.197h.503v-1.15h-.395zm.395-.6h.254v.32h-.254z"/>
      <path d="m60.066 116.823v.782h-.255v-2.13h.255v.196q.063-.114.168-.173.106-.061.244-.061.28 0 .438.216.16.217.16.6 0 .376-.16.591-.16.214-.438.214-.14 0-.247-.06-.104-.06-.165-.175zm.744-.576q0-.295-.094-.445-.092-.15-.275-.15-.185 0-.28.152-.095.15-.095.443 0 .292.095.444.095.152.28.152.183 0 .275-.15.094-.15.094-.446z"/>
      <path d="m62.213 115.404v.612h.613v.234h-.613v.612h-.232v-.612h-.611v-.234h.611v-.612z"/>
      <path d="m63.613 115.984q0-.076.052-.13.054-.056.129-.056.077 0 .132.055.055.055.055.131 0 .077-.055.131-.054.054-.132.054-.078 0-.13-.053-.051-.052-.051-.132zm.183-.84q-.194 0-.29.209-.096.21-.096.638 0 .427.096.637.096.21.29.21.196 0 .291-.21.097-.21.097-.637 0-.429-.097-.638-.095-.21-.29-.21zm0-.221q.33 0 .498.27.17.27.17.798 0 .526-.17.796-.168.27-.498.27-.329 0-.497-.27-.168-.27-.168-.796 0-.528.168-.798t.497-.27z"/>
      <path d="m66.187 115.474-.552.739.606.805h-.294l-.452-.62-.45.62h-.294l.607-.805-.553-.739h.281l.41.558.406-.558z"/>
      <path d="m67.808 116.94q-.102.058-.211.087-.108.03-.22.03-.359 0-.561-.214-.202-.215-.202-.596 0-.38.202-.595.202-.215.56-.215.112 0 .218.029t.214.09v.265q-.1-.09-.203-.13-.1-.04-.229-.04-.238 0-.366.155t-.128.441q0 .285.128.441.13.155.366.155.133 0 .237-.04.105-.042.195-.127z"/>
      <path d="m69.012 116.242h-.084q-.222 0-.335.078-.111.078-.111.232 0 .14.084.216.084.077.233.077.21 0 .329-.144.12-.146.121-.403v-.056zm.492-.105v.88h-.255v-.228q-.081.138-.205.204-.123.065-.3.065-.235 0-.375-.133t-.14-.357q0-.257.171-.39.174-.135.509-.135h.34v-.04q-.001-.184-.094-.267-.092-.084-.294-.084-.13 0-.262.037-.133.037-.258.109v-.254q.14-.053.269-.08.13-.027.25-.027.192 0 .327.056.137.057.22.17.053.069.075.17t.022.304z"/>
      <path d="m70.813 115.917q.203.053.31.191.108.137.108.342 0 .284-.192.446-.19.162-.528.162-.141 0-.289-.027-.147-.026-.29-.075v-.277q.141.073.278.108.136.036.271.036.229 0 .352-.103.122-.103.122-.298 0-.179-.122-.284-.123-.106-.333-.106h-.212v-.228h.212q.192 0 .3-.085.107-.084.107-.234 0-.158-.1-.242-.1-.086-.284-.086-.123 0-.254.028-.131.027-.274.083v-.257q.166-.044.296-.066.13-.022.232-.022.3 0 .48.152.18.15.18.4 0 .169-.095.282-.094.113-.275.16z"/>
      <path d="m72.504 114.873v2.517h-.584v-.197h.33v-2.123h-.33v-.197z"/>
      <path d="m42.321 120.75q-.102.058-.21.087-.108.03-.221.03-.359 0-.561-.214-.201-.215-.201-.596 0-.38.2-.595.203-.215.562-.215.111 0 .217.029t.214.09v.265q-.1-.09-.203-.13-.1-.04-.228-.04-.239 0-.367.155t-.128.441q0 .285.128.441.13.155.367.155.132 0 .237-.04.104-.042.194-.127z"/>
      <path d="m43.525 120.052h-.084q-.222 0-.335.078-.111.077-.111.232 0 .139.084.216.084.077.233.077.21 0 .33-.144.119-.146.12-.403v-.056zm.492-.105v.88h-.255v-.228q-.08.138-.205.204-.123.065-.299.065-.236 0-.376-.133t-.14-.357q0-.257.172-.39.173-.135.508-.135h.34v-.04q-.001-.184-.093-.267-.093-.084-.295-.084-.13 0-.262.037t-.258.109v-.254q.14-.053.269-.08.13-.027.25-.027.192 0 .327.056.137.057.22.17.053.069.075.17t.022.304z"/>
      <path d="m45.138 120.268q0 .171.062.258.063.087.186.087h.296v.215h-.321q-.227 0-.353-.146-.124-.147-.124-.414v-1.401h-.406v-.199h.66z"/>
      <path d="m46.837 120.268q0 .171.062.258.063.087.186.087h.296v.215h-.32q-.228 0-.354-.146-.124-.147-.124-.414v-1.401h-.406v-.199h.66z"/>
      <path d="m49.727 120.593h.432v-1.572l-.466.105v-.254l.464-.102h.278v1.823h.427v.235h-1.135z"/>
      <path d="m51.72 119.794q0-.076.052-.13.053-.056.128-.056.077 0 .132.055.055.055.055.131 0 .077-.055.131-.054.054-.132.054-.077 0-.13-.053-.05-.052-.05-.132zm.182-.84q-.194 0-.29.209-.095.21-.095.638 0 .427.095.637.096.21.29.21.196 0 .291-.21.097-.21.097-.637 0-.429-.097-.638-.095-.21-.29-.21zm0-.221q.33 0 .498.27.17.27.17.798 0 .526-.17.796-.168.27-.498.27-.329 0-.497-.27-.168-.27-.168-.796 0-.528.168-.798t.497-.27z"/>
      <path d="m53.574 119.915q.178 0 .278-.128.102-.128.102-.354 0-.226-.102-.354-.1-.128-.278-.128-.185 0-.278.122-.094.122-.094.36 0 .24.092.361.094.121.28.121zm-.496.87v-.256q.087.05.185.078.097.026.204.026.264 0 .4-.198.136-.2.136-.587-.065.138-.182.212-.117.073-.269.073-.298 0-.462-.183-.162-.184-.162-.52 0-.332.166-.514.169-.183.475-.183.358 0 .525.258.166.257.166.81 0 .52-.2.794-.2.273-.582.273-.101 0-.203-.023-.102-.02-.197-.06z"/>
      <path d="m55.117 119.794q0-.076.053-.13.054-.056.128-.056.077 0 .132.055.055.055.055.131 0 .077-.055.131-.053.054-.132.054-.077 0-.13-.053-.05-.052-.05-.132zm.184-.84q-.195 0-.291.209-.095.21-.095.638 0 .427.095.637.096.21.29.21.196 0 .291-.21.097-.21.097-.637 0-.429-.097-.638-.095-.21-.29-.21zm0-.221q.33 0 .497.27.17.27.17.798 0 .526-.17.796-.168.27-.497.27-.33 0-.498-.27-.168-.27-.168-.796 0-.528.168-.798t.498-.27z"/>
      <path d="m41.533 123.447h.347v.42h-.347z"/>
      <path d="m43.232 123.447h.347v.42h-.347z"/>
      <path d="m44.931 123.447h.347v.42h-.347z"/>
    </g>
    <g fill="#986a44" stroke-width=".2646" aria-label="lea eax,[rsi+rsi*8] add eax,edi ret nop">
      <path d="m41.74 85.474q0 .17.061.257.064.087.187.087h.296v.215h-.321q-.228 0-.353-.146-.124-.146-.124-.413v-1.402h-.407v-.198h.66z"/>
      <path d="m44.09 85.198v.124h-1.098v.008q0 .253.131.39.132.138.372.138.121 0 .254-.038.132-.039.282-.118v.253q-.145.059-.28.088-.133.03-.259.03-.36 0-.562-.215-.202-.216-.202-.595 0-.37.198-.59.198-.22.53-.22.294 0 .464.2.17.2.17.545zm-.253-.074q-.006-.224-.106-.34-.1-.116-.287-.116-.183 0-.302.12-.118.122-.14.337z"/>
      <path d="m45.225 85.257h-.085q-.221 0-.334.079-.112.077-.112.231 0 .14.084.217.084.077.233.077.21 0 .33-.145.12-.146.12-.402v-.057zm.491-.104v.88h-.254v-.229q-.082.138-.206.204-.122.065-.299.065-.235 0-.376-.132-.14-.134-.14-.357 0-.258.172-.391.173-.134.508-.134h.34v-.04q0-.185-.093-.267-.093-.084-.295-.084-.13 0-.262.037t-.258.109v-.254q.141-.054.27-.08.129-.027.25-.027.191 0 .327.056.136.057.22.17.052.068.074.17.022.101.022.304z"/>
      <path d="m49.188 85.198v.124h-1.099v.008q0 .253.131.39.133.138.372.138.122 0 .254-.038.132-.039.282-.118v.253q-.144.059-.28.088-.133.03-.258.03-.36 0-.563-.215-.202-.216-.202-.595 0-.37.198-.59.199-.22.53-.22.294 0 .464.2.17.2.17.545zm-.254-.074q-.005-.224-.106-.34-.1-.116-.287-.116-.183 0-.301.12-.119.122-.14.337z"/>
      <path d="m50.322 85.257h-.084q-.222 0-.335.079-.112.077-.112.231 0 .14.084.217.084.077.233.077.21 0 .33-.145.12-.146.12-.402v-.057zm.492-.104v.88h-.255v-.229q-.081.138-.205.204-.123.065-.3.065-.235 0-.376-.132-.14-.134-.14-.357 0-.258.172-.391.174-.134.509-.134h.34v-.04q-.002-.185-.094-.267-.092-.084-.295-.084-.13 0-.262.037t-.257.109v-.254q.14-.054.268-.08.13-.027.251-.027.192 0 .327.056.136.057.22.17.053.068.075.17.022.101.022.304z"/>
      <path d="m52.594 84.49-.552.738.606.805h-.294l-.452-.619-.45.62h-.294l.607-.806-.553-.738h.281l.41.558.406-.558z"/>
      <path d="m53.445 85.616h.347v.285l-.272.528h-.212l.137-.528z"/>
      <path d="m55.09 83.889h.584v.197h-.33v2.122h.33v.197h-.584z"/>
      <path d="m57.743 84.808q-.082-.063-.166-.092-.084-.03-.184-.03-.237 0-.363.15-.125.148-.125.43v.767h-.255v-1.543h.255v.302q.063-.164.194-.251.132-.088.313-.088.094 0 .175.023.081.023.156.073z"/>
      <path d="m59.19 84.544v.248q-.108-.064-.218-.096-.11-.031-.225-.031-.172 0-.258.056-.084.055-.084.17 0 .103.064.154.063.051.315.1l.102.019q.19.035.286.143.097.107.097.28 0 .228-.162.358-.163.128-.452.128-.115 0-.24-.025-.125-.023-.271-.071v-.262q.142.073.271.11.13.036.245.036.168 0 .26-.068.093-.069.093-.191 0-.177-.337-.244l-.011-.003-.096-.02q-.219-.042-.32-.142-.1-.102-.1-.277 0-.222.15-.342.15-.121.429-.121.124 0 .238.023.115.022.225.067z"/>
      <path d="m59.902 84.49h.649v1.346h.503v.197h-1.26v-.197h.503v-1.15h-.395zm.395-.601h.254v.321h-.254z"/>
      <path d="m62.213 84.42v.611h.613v.235h-.613v.611h-.232v-.611h-.611v-.235h.611v-.612z"/>
      <path d="m64.54 84.808q-.082-.063-.166-.092-.084-.03-.185-.03-.237 0-.362.15-.126.148-.126.43v.767h-.255v-1.543h.255v.302q.064-.164.195-.251.132-.088.312-.088.094 0 .175.023.082.023.156.073z"/>
      <path d="m65.987 84.544v.248q-.108-.064-.219-.096-.11-.031-.224-.031-.173 0-.258.056-.084.055-.084.17 0 .103.063.154.064.051.316.1l.102.019q.189.035.285.143.098.107.098.28 0 .228-.163.358-.162.128-.452.128-.114 0-.24-.025-.125-.023-.27-.071v-.262q.141.073.27.11.13.036.246.036.168 0 .26-.068.093-.069.093-.191 0-.177-.338-.244l-.011-.003-.095-.02q-.22-.042-.32-.142-.1-.102-.1-.277 0-.222.15-.342.15-.121.428-.121.124 0 .239.023.114.022.224.067z"/>
      <path d="m66.698 84.49h.65v1.346h.503v.197h-1.26v-.197h.503v-1.15h-.396zm.396-.601h.254v.321h-.254z"/>
      <path d="m69.515 84.315-.493.267.493.269-.078.135-.463-.28v.52h-.159v-.52l-.463.28-.078-.135.493-.269-.493-.267.078-.137.463.28v-.52h.159v.52l.463-.28z"/>
      <path d="m70.593 85.056q-.186 0-.288.105-.1.103-.1.293t.101.297q.104.104.287.104.187 0 .288-.103.102-.105.102-.298 0-.188-.104-.293-.102-.105-.286-.105zm-.243-.116q-.178-.045-.278-.17-.1-.123-.1-.298 0-.245.167-.389.167-.144.454-.144.288 0 .455.144.166.144.166.389 0 .175-.1.299t-.277.17q.206.045.315.183.11.137.11.357 0 .278-.177.435-.178.157-.492.157t-.492-.156q-.177-.157-.177-.434 0-.22.11-.358.11-.14.316-.185zm-.1-.442q0 .165.088.252t.255.087q.168 0 .256-.087t.088-.252q0-.168-.088-.256-.087-.088-.256-.088-.167 0-.255.09-.088.087-.088.254z"/>
      <path d="m72.504 83.889v2.516h-.584v-.197h.33v-2.122h-.33v-.197z"/>
      <path d="m41.826 89.067h-.084q-.222 0-.335.079-.111.077-.111.231 0 .14.084.217.084.077.233.077.21 0 .329-.145.12-.146.121-.402v-.057zm.492-.104v.88h-.255v-.229q-.081.138-.205.204-.123.065-.3.065-.235 0-.375-.132-.14-.134-.14-.357 0-.258.171-.391.174-.134.509-.134h.34v-.04q-.001-.185-.093-.267-.093-.084-.295-.084-.13 0-.262.037t-.258.109v-.254q.14-.054.269-.08.13-.027.25-.027.192 0 .327.056.137.057.22.17.053.068.075.17.022.101.022.304z"/>
      <path d="m43.74 88.497v-.798h.254v2.144h-.254v-.194q-.063.114-.17.175-.104.06-.242.06-.28 0-.44-.217-.16-.218-.16-.6 0-.376.16-.59.162-.214.44-.214.14 0 .246.06.106.06.166.174zm-.745.576q0 .295.094.445.093.15.277.15.183 0 .278-.151.096-.152.096-.444 0-.294-.096-.444-.095-.151-.278-.151-.184 0-.277.15-.094.15-.094.445z"/>
      <path d="m45.44 88.497v-.798h.253v2.144h-.254v-.194q-.063.114-.169.175-.105.06-.243.06-.28 0-.44-.217-.16-.218-.16-.6 0-.376.16-.59.162-.214.44-.214.14 0 .246.06.106.06.166.174zm-.746.576q0 .295.094.445.093.15.277.15.183 0 .278-.151.096-.152.096-.444 0-.294-.096-.444-.095-.151-.278-.151-.184 0-.277.15-.094.15-.094.445z"/>
      <path d="m49.188 89.008v.124h-1.099v.008q0 .253.131.39.133.138.372.138.122 0 .254-.038.132-.039.282-.118v.253q-.144.059-.28.088-.133.03-.258.03-.36 0-.563-.215-.202-.216-.202-.595 0-.37.198-.59.199-.22.53-.22.294 0 .464.2.17.2.17.545zm-.254-.074q-.005-.224-.106-.34-.1-.116-.287-.116-.183 0-.301.12-.119.122-.14.337z"/>
      <path d="m50.322 89.067h-.084q-.222 0-.335.079-.112.077-.112.231 0 .14.084.217.084.077.233.077.21 0 .33-.145.12-.146.12-.402v-.057zm.492-.104v.88h-.255v-.229q-.081.138-.205.204-.123.065-.3.065-.235 0-.376-.132-.14-.134-.14-.357 0-.258.172-.391.174-.134.509-.134h.34v-.04q-.002-.185-.094-.267-.092-.084-.295-.084-.13 0-.262.037t-.257.109v-.254q.14-.054.268-.08.13-.027.251-.027.192 0 .327.056.136.057.22.17.053.068.075.17.022.101.022.304z"/>
      <path d="m52.594 88.3-.552.738.606.805h-.294l-.452-.619-.45.62h-.294l.607-.806-.553-.738h.281l.41.558.406-.558z"/>
      <path d="m53.445 89.426h.347v.285l-.272.528h-.212l.137-.528z"/>
      <path d="m55.984 89.008v.124h-1.098v.008q0 .253.13.39.133.138.373.138.121 0 .253-.038.133-.039.283-.118v.253q-.145.059-.28.088-.133.03-.259.03-.36 0-.562-.215-.203-.216-.203-.595 0-.37.199-.59.198-.22.529-.22.295 0 .464.2.171.2.171.545zm-.253-.074q-.006-.224-.106-.34-.1-.116-.287-.116-.183 0-.302.12-.118.122-.14.337z"/>
      <path d="m57.333 88.497v-.798h.254v2.144h-.254v-.194q-.063.114-.17.175-.104.06-.242.06-.28 0-.44-.217-.16-.218-.16-.6 0-.376.16-.59.162-.214.44-.214.14 0 .246.06.106.06.166.174zm-.745.576q0 .295.094.445.093.15.277.15.183 0 .278-.151.096-.152.096-.444 0-.294-.096-.444-.095-.151-.278-.151-.184 0-.277.15-.094.15-.094.445z"/>
      <path d="m58.203 88.3h.649v1.346h.503v.197h-1.26v-.197h.503v-1.15h-.395zm.395-.601h.254v.321h-.254z"/>
      <path d="m42.45 92.428q-.08-.063-.165-.092-.084-.03-.184-.03-.238 0-.363.15-.125.148-.125.43v.767h-.255v-1.543h.255v.302q.063-.164.194-.251.132-.088.313-.088.094 0 .175.023.081.023.156.073z"/>
      <path d="m44.09 92.818v.124h-1.098v.008q0 .253.131.39.132.138.372.138.121 0 .254-.038.132-.039.282-.118v.253q-.145.059-.28.088-.133.03-.259.03-.36 0-.562-.215-.202-.216-.202-.595 0-.37.198-.59.198-.22.53-.22.294 0 .464.2.17.2.17.545zm-.253-.074q-.006-.224-.106-.34-.1-.116-.287-.116-.183 0-.302.12-.118.122-.14.337z"/>
      <path d="m45.103 91.672v.438h.576v.197h-.576v.838q0 .17.065.238.065.068.226.068h.285v.202h-.31q-.285 0-.402-.114-.117-.115-.117-.394v-.838h-.412v-.197h.412v-.438z"/>
      <path d="m42.307 96.507v.956h-.255v-.956q0-.208-.073-.306t-.229-.098q-.177 0-.274.127-.095.125-.095.36v.873h-.253v-1.543h.253v.231q.068-.132.183-.2.116-.068.275-.068.235 0 .351.155.117.155.117.469z"/>
      <path d="m43.407 96.098q-.193 0-.292.15-.1.15-.1.445 0 .293.1.445.099.15.292.15.194 0 .293-.15.1-.152.1-.445 0-.295-.1-.445-.099-.15-.293-.15zm0-.215q.321 0 .49.208.171.208.171.602 0 .395-.17.603-.169.207-.491.207-.321 0-.49-.207-.17-.208-.17-.603 0-.394.17-.602.169-.208.49-.208z"/>
      <path d="m44.774 97.269v.781h-.255v-2.13h.255v.197q.063-.115.168-.174.106-.06.244-.06.28 0 .438.216.16.216.16.6 0 .376-.16.59-.16.214-.438.214-.14 0-.247-.06-.104-.06-.165-.174zm.744-.576q0-.295-.094-.445-.092-.15-.275-.15-.185 0-.28.151-.095.15-.095.444 0 .292.095.444.095.151.28.151.183 0 .275-.15.094-.15.094-.445z"/>
    </g>
    <g stroke-width=".2646" aria-label="fn2:">
      <path d="m34.092 99.6v.212h-.288q-.136 0-.19.056-.052.055-.052.197v.137h.53v.197h-.53v1.346h-.254v-1.346h-.412v-.197h.412v-.108q0-.254.116-.373.117-.12.364-.12z"/>
      <path d="m35.775 100.789v.956h-.255v-.956q0-.209-.073-.306-.073-.098-.229-.098-.178 0-.274.127-.095.125-.095.36v.873h-.254v-1.543h.254v.231q.067-.132.183-.2.116-.069.274-.069.236 0 .352.156.117.154.117.469z"/>
      <path d="m36.54 101.51h.945v.235h-1.25v-.234q.258-.272.45-.48.194-.208.267-.293.138-.169.186-.272.048-.105.048-.213 0-.173-.102-.27-.1-.098-.277-.098-.125 0-.263.045-.138.046-.292.138v-.281q.142-.068.278-.102.138-.035.272-.035.301 0 .485.162.184.16.184.42 0 .132-.062.264-.06.133-.198.293-.077.09-.225.248-.146.158-.446.474z"/>
      <path d="m38.399 100.28h.347v.418h-.347zm0 1.045h.347v.42h-.347z"/>
    </g>
    <g fill="none">
      <path d="m75.9 98.5h13.3" stroke="#9a9996" stroke-dasharray=".53" stroke-width=".265"/>
      <path d="m125.8 98.5h15.4" stroke="#9a9996" stroke-dasharray=".53" stroke-width=".265"/>
      <path d="m40 82v44" stroke="#000" stroke-width=".2646"/>
      <path d="m75 82v44" stroke="#000" stroke-width=".2646"/>
      <path d="m90 82v44" stroke="#000" stroke-width=".2646"/>
      <path d="m125 82v44" stroke="#000" stroke-width=".2646"/>
      <path d="m142 82v44" stroke="#000" stroke-width=".2646"/>
      <path d="m177 82v44" stroke="#000" stroke-width=".2646"/>
      <path d="m125.012 98.501h-4.507v12.499h4.507" stroke="#000" stroke-width=".2646"/>
    </g>
    <g stroke-width=".2646" aria-label="fn1:">
      <path d="m34.092 83.86v.212h-.288q-.136 0-.19.056-.052.055-.052.197v.137h.53v.197h-.53v1.346h-.254v-1.346h-.412v-.197h.412v-.108q0-.254.116-.373.117-.12.364-.12z"/>
      <path d="m35.775 85.049v.956h-.255v-.956q0-.208-.073-.306t-.229-.098q-.178 0-.274.127-.095.125-.095.36v.873h-.254v-1.543h.254v.231q.067-.132.183-.2.116-.069.274-.069.236 0 .352.156.117.154.117.469z"/>
      <path d="m36.398 85.77h.432v-1.572l-.465.105v-.253l.463-.102h.278v1.823h.427v.234h-1.135z"/>
      <path d="m38.399 84.54h.347v.418h-.347zm0 1.045h.347v.42h-.347z"/>
    </g>
  </g>
</svg>
